<svg width="28" height="28" viewBox="0 0 28 28" fill="none" xmlns="http://www.w3.org/2000/svg">
<path d="M14.0007 25.6672V15.1672M23.3341 15.1672V19.6822C23.3345 20.1225 23.214 20.5545 22.9856 20.931C22.7572 21.3076 22.4298 21.6141 22.0391 21.8172L15.0391 25.4105C14.7183 25.5772 14.3622 25.6642 14.0007 25.6642C13.6393 25.6642 13.2831 25.5772 12.9624 25.4105L5.9624 21.8172C5.57166 21.6141 5.24423 21.3076 5.01586 20.931C4.78748 20.5545 4.66694 20.1225 4.6674 19.6822V15.1672M17.6991 2.57874C17.9897 2.41628 18.317 2.33097 18.6499 2.33097C18.9828 2.33097 19.3102 2.41628 19.6008 2.57874L24.5008 5.33208C24.8478 5.52831 25.1365 5.81316 25.3374 6.15753C25.5382 6.50189 25.6441 6.89341 25.6441 7.29208C25.6441 7.69074 25.5382 8.08226 25.3374 8.42663C25.1365 8.77099 24.8478 9.05584 24.5008 9.25207L10.2908 17.2554C9.99932 17.4216 9.6696 17.5091 9.33409 17.5091C8.99858 17.5091 8.66886 17.4216 8.37742 17.2554L3.50076 14.5021C3.15373 14.3058 2.86502 14.021 2.66415 13.6766C2.46327 13.3323 2.35742 12.9407 2.35742 12.5421C2.35742 12.1434 2.46327 11.7519 2.66415 11.4075C2.86502 11.0632 3.15373 10.7783 3.50076 10.5821L17.6991 2.57874ZM24.5008 14.5024C24.8478 14.3062 25.1365 14.0213 25.3374 13.677C25.5382 13.3326 25.6441 12.9411 25.6441 12.5424C25.6441 12.1438 25.5382 11.7522 25.3374 11.4079C25.1365 11.0635 24.8478 10.7787 24.5008 10.5824L10.3024 2.56744C10.0129 2.40166 9.68517 2.31445 9.35159 2.31445C9.01801 2.31445 8.69023 2.40166 8.40075 2.56744L3.50076 5.33244C3.15373 5.52867 2.86502 5.81353 2.66415 6.15789C2.46327 6.50225 2.35742 6.89377 2.35742 7.29244C2.35742 7.6911 2.46327 8.08263 2.66415 8.42699C2.86502 8.77135 3.15373 9.0562 3.50076 9.25244L17.7108 17.2558C18.0001 17.422 18.3279 17.5095 18.6616 17.5095C18.9953 17.5095 19.3231 17.422 19.6124 17.2558L24.5008 14.5024Z" stroke="#FF004D" stroke-width="2" stroke-linecap="round" stroke-linejoin="round"/>
</svg>
