<svg width="28" height="28" viewBox="0 0 28 28" fill="none" xmlns="http://www.w3.org/2000/svg">
<path d="M10.4993 25.6663V20.9997H17.4993V25.6663M9.33268 6.99967H9.34435M18.666 6.99967H18.6777M13.9993 6.99967H14.011M13.9993 11.6663H14.011M13.9993 16.333H14.011M18.666 11.6663H18.6777M18.666 16.333H18.6777M9.33268 11.6663H9.34435M9.33268 16.333H9.34435M6.99935 2.33301H20.9994C22.288 2.33301 23.3327 3.37768 23.3327 4.66634V23.333C23.3327 24.6217 22.288 25.6663 20.9994 25.6663H6.99935C5.71068 25.6663 4.66602 24.6217 4.66602 23.333V4.66634C4.66602 3.37768 5.71068 2.33301 6.99935 2.33301Z" stroke="#FF004D" stroke-width="2" stroke-linecap="round" stroke-linejoin="round"/>
</svg>
