<svg width="28" height="28" viewBox="0 0 28 28" fill="none" xmlns="http://www.w3.org/2000/svg">
<path d="M4.66732 25.6663C4.04848 25.6663 3.45499 25.4205 3.0174 24.9829C2.57982 24.5453 2.33398 23.9518 2.33398 23.333V4.66634C2.33398 4.0475 2.57982 3.45401 3.0174 3.01643C3.45499 2.57884 4.04848 2.33301 4.66732 2.33301H23.334C23.9528 2.33301 24.5463 2.57884 24.9839 3.01643C25.4215 3.45401 25.6673 4.0475 25.6673 4.66634V23.333C25.6673 23.9518 25.4215 24.5453 24.9839 24.9829C24.5463 25.4205 23.9528 25.6663 23.334 25.6663M11.6673 25.6663H9.33398M18.6673 25.6663H16.334M10.9837 10.9827L14.0007 13.9997M17.2674 17.2661L21.0007 20.9994M21.0007 6.99967L10.9837 17.0167M11.6673 9.33301C11.6673 10.6217 10.6226 11.6663 9.33398 11.6663C8.04532 11.6663 7.00065 10.6217 7.00065 9.33301C7.00065 8.04434 8.04532 6.99967 9.33398 6.99967C10.6226 6.99967 11.6673 8.04434 11.6673 9.33301ZM11.6673 18.6663C11.6673 19.955 10.6226 20.9997 9.33398 20.9997C8.04532 20.9997 7.00065 19.955 7.00065 18.6663C7.00065 17.3777 8.04532 16.333 9.33398 16.333C10.6226 16.333 11.6673 17.3777 11.6673 18.6663Z" stroke="#FF004D" stroke-width="2" stroke-linecap="round" stroke-linejoin="round"/>
</svg>
