<svg width="173" height="32" viewBox="0 0 173 32" fill="none" xmlns="http://www.w3.org/2000/svg">
<path d="M167.43 10.2449C167.43 8.47761 168.862 7.04492 170.63 7.04492H171.911V25.8659H167.43V10.2449Z" fill="white"/>
<path d="M142.078 16.4638C142.078 15.0859 142.316 13.7933 142.791 12.5862C143.267 11.3668 143.938 10.306 144.803 9.40362C145.681 8.48909 146.736 7.76967 147.968 7.24534C149.199 6.72101 150.565 6.45885 152.065 6.45885C153.418 6.45885 154.619 6.68443 155.668 7.1356C156.717 7.58676 157.625 8.15987 158.393 8.8549V3.29375C158.393 1.52644 159.826 0.09375 161.593 0.09375H162.838V25.8651H159.033L158.759 23.6702C158.381 24.0604 157.954 24.4262 157.479 24.7676C157.015 25.0969 156.503 25.3895 155.942 25.6456C155.381 25.8895 154.784 26.0846 154.15 26.2309C153.516 26.3772 152.845 26.4504 152.138 26.4504C150.638 26.4504 149.266 26.1882 148.023 25.6639C146.791 25.1396 145.736 24.4262 144.858 23.5239C143.98 22.6216 143.297 21.5668 142.81 20.3596C142.322 19.1403 142.078 17.8416 142.078 16.4638ZM146.523 16.4455C146.523 17.3478 146.681 18.177 146.998 18.933C147.315 19.689 147.748 20.3413 148.297 20.8901C148.846 21.4266 149.486 21.8473 150.217 22.1521C150.949 22.4448 151.736 22.5911 152.577 22.5911C153.406 22.5911 154.186 22.4448 154.918 22.1521C155.65 21.8473 156.284 21.4266 156.82 20.8901C157.369 20.3413 157.802 19.6951 158.119 18.9513C158.436 18.1953 158.594 17.36 158.594 16.4455C158.594 15.5553 158.436 14.7384 158.119 13.9945C157.802 13.2385 157.369 12.5923 156.82 12.0557C156.272 11.5192 155.631 11.0985 154.9 10.7937C154.168 10.4889 153.382 10.3364 152.54 10.3364C151.699 10.3364 150.912 10.4889 150.181 10.7937C149.449 11.0863 148.809 11.507 148.26 12.0557C147.724 12.5923 147.297 13.2385 146.98 13.9945C146.675 14.7384 146.523 15.5553 146.523 16.4455Z" fill="white"/>
<path d="M119.176 16.4651C119.176 15.0872 119.432 13.7947 119.944 12.5875C120.456 11.3682 121.169 10.3073 122.084 9.405C123.011 8.50267 124.108 7.78934 125.376 7.26501C126.644 6.74068 128.028 6.47852 129.528 6.47852C131.04 6.47852 132.43 6.74068 133.698 7.26501C134.979 7.78934 136.076 8.50267 136.991 9.405C137.917 10.3073 138.637 11.3682 139.149 12.5875C139.673 13.7947 139.936 15.0872 139.936 16.4651C139.936 16.77 139.923 17.0138 139.899 17.1968C139.875 17.3797 139.85 17.5565 139.826 17.7272H123.547C123.694 18.4954 123.956 19.1904 124.334 19.8123C124.724 20.4342 125.187 20.9646 125.724 21.4036C126.272 21.8304 126.876 22.1657 127.535 22.4096C128.193 22.6412 128.87 22.7571 129.565 22.7571C130.662 22.7571 131.632 22.5132 132.473 22.0254C133.314 21.5377 133.955 20.8975 134.393 20.1049H139.204C138.899 20.9341 138.454 21.7328 137.869 22.501C137.283 23.257 136.576 23.9277 135.747 24.513C134.93 25.0983 133.997 25.5616 132.949 25.903C131.912 26.2567 130.772 26.4335 129.528 26.4335C128.028 26.4335 126.644 26.1713 125.376 25.647C124.108 25.1226 123.011 24.4093 122.084 23.507C121.169 22.6046 120.456 21.5499 119.944 20.3427C119.432 19.1355 119.176 17.843 119.176 16.4651ZM129.565 10.0452C128.809 10.0452 128.108 10.161 127.461 10.3927C126.827 10.6122 126.254 10.9231 125.742 11.3255C125.242 11.7279 124.815 12.2095 124.462 12.7705C124.108 13.3192 123.846 13.9228 123.675 14.5812H135.253C135.082 13.9228 134.826 13.3192 134.485 12.7705C134.144 12.2095 133.729 11.7279 133.241 11.3255C132.753 10.9231 132.199 10.6122 131.577 10.3927C130.967 10.161 130.296 10.0452 129.565 10.0452Z" fill="white"/>
<path d="M116.359 25.8665H111.896V15.7335C111.896 13.8679 111.561 12.5022 110.89 11.6364C110.219 10.7707 109.268 10.3378 108.037 10.3378C107.329 10.3378 106.683 10.4598 106.098 10.7036C105.512 10.9353 105 11.2706 104.561 11.7096C104.135 12.1486 103.799 12.6912 103.555 13.3375C103.312 13.9715 103.177 14.691 103.153 15.4957V25.8665H98.6718V15.7335C98.6718 13.8679 98.3365 12.5022 97.6659 11.6364C96.9952 10.7707 96.0441 10.3378 94.8125 10.3378C94.0931 10.3378 93.4286 10.4598 92.8189 10.7036C92.2214 10.9475 91.7092 11.3072 91.2825 11.7828C90.8557 12.2461 90.5204 12.8192 90.2765 13.5021C90.0448 14.1727 89.929 14.9348 89.929 15.7884V25.8665H85.4844V7.04552H87.3407C88.3622 7.04552 89.2369 7.77757 89.4168 8.78312C89.7705 8.46608 90.1606 8.16734 90.5874 7.88689C91.0264 7.60643 91.502 7.36256 92.0141 7.15526C92.5262 6.94797 93.0688 6.78336 93.6419 6.66142C94.2272 6.53948 94.8369 6.47852 95.471 6.47852C96.7879 6.47852 97.9524 6.72849 98.9645 7.22843C99.9888 7.72837 100.836 8.4356 101.507 9.35013C101.873 8.95993 102.293 8.59412 102.769 8.2527C103.257 7.89908 103.793 7.59424 104.378 7.33817C104.964 7.06991 105.604 6.86262 106.299 6.71629C106.994 6.55777 107.744 6.47852 108.549 6.47852C109.792 6.47852 110.896 6.68581 111.859 7.10039C112.835 7.50278 113.652 8.09418 114.31 8.87457C114.981 9.64277 115.487 10.5939 115.828 11.7279C116.182 12.8619 116.359 14.1544 116.359 15.6055V25.8665Z" fill="white"/>
<path d="M60.2539 16.4651C60.2539 15.0872 60.4917 13.7947 60.9672 12.5875C61.455 11.3682 62.1378 10.3073 63.0158 9.405C63.9059 8.50267 64.9668 7.78934 66.1983 7.26501C67.4421 6.74068 68.82 6.47852 70.332 6.47852C71.0392 6.47852 71.7099 6.55168 72.3439 6.698C72.9902 6.83213 73.5938 7.02113 74.1547 7.26501C74.7156 7.49669 75.2277 7.77714 75.6911 8.10637C76.1667 8.42341 76.5873 8.75873 76.9531 9.11235C77.0994 7.93192 78.1024 7.04552 79.2918 7.04552H81.0136V25.8665H77.2092L76.9531 23.7996C76.5751 24.1654 76.1484 24.5069 75.6728 24.8239C75.1973 25.1409 74.679 25.4214 74.1181 25.6653C73.5694 25.8969 72.9719 26.0798 72.3256 26.214C71.6916 26.3603 71.0209 26.4335 70.3137 26.4335C68.8139 26.4335 67.4421 26.1774 66.1983 25.6653C64.9668 25.1409 63.912 24.4276 63.0341 23.5253C62.1561 22.6229 61.4733 21.5682 60.9855 20.361C60.4978 19.1416 60.2539 17.843 60.2539 16.4651ZM64.6985 16.4468C64.6985 17.3492 64.857 18.1783 65.1741 18.9344C65.4911 19.6904 65.924 20.3427 66.4727 20.8914C67.0214 21.428 67.6616 21.8486 68.3932 22.1535C69.1248 22.4461 69.9113 22.5925 70.7527 22.5925C71.5818 22.5925 72.3622 22.4461 73.0938 22.1535C73.8255 21.8486 74.4595 21.428 74.9961 20.8914C75.5448 20.3427 75.9777 19.6965 76.2947 18.9526C76.6117 18.1966 76.7702 17.3614 76.7702 16.4468C76.7702 15.5567 76.6117 14.7397 76.2947 13.9959C75.9777 13.2399 75.5448 12.5936 74.9961 12.0571C74.4473 11.5206 73.8072 11.0999 73.0756 10.7951C72.3439 10.4902 71.5574 10.3378 70.7161 10.3378C69.8747 10.3378 69.0882 10.4902 68.3566 10.7951C67.625 11.0877 66.9848 11.5084 66.4361 12.0571C65.8996 12.5936 65.4728 13.2399 65.1558 13.9959C64.8509 14.7397 64.6985 15.5567 64.6985 16.4468Z" fill="white"/>
<path d="M59.9044 7.04492L51.8931 25.8659H47.8692L39.8945 7.04492H42.491C43.7957 7.04492 44.9699 7.83713 45.4583 9.04706L49.8629 19.958H49.8994L54.304 9.04706C54.7924 7.83713 55.9666 7.04492 57.2714 7.04492H59.9044Z" fill="white"/>
<rect x="167.414" y="-0.00292969" width="5.18073" height="5.18072" rx="2.59036" fill="#FF004D"/>
<path d="M31.0879 25.7197L30.5285 25.7197C27.8776 25.7197 25.7285 23.5707 25.7285 20.9197L25.7285 -0.00519799L31.0879 -0.00519753L31.0879 25.7197Z" fill="#A50032"/>
<path d="M10.1613 5.35449C7.51036 5.35449 5.36133 3.20546 5.36133 0.554492L5.36133 -0.00486946L31.0863 -0.00486609L31.0863 5.3545L10.1613 5.35449Z" fill="#FF004D"/>
<path d="M26.4395 5.35611C26.5017 5.35398 26.5664 5.35392 26.6333 5.35611H31.0893V11.8712C31.0893 6.7463 28.2333 5.40841 26.6333 5.35611H26.4395Z" fill="#FF004D"/>
<path d="M-0.00390625 5.35938L0.555454 5.35938C3.20642 5.35938 5.35545 7.50841 5.35545 10.1594L5.35545 31.0843L-0.00391075 31.0843L-0.00390625 5.35938Z" fill="#A50032"/>
<path d="M20.9227 25.7246C23.5736 25.7246 25.7227 27.8736 25.7227 30.5246L25.7227 31.084L-0.00226901 31.084L-0.00226784 25.7246L20.9227 25.7246Z" fill="#FF004D"/>
<path d="M4.64453 25.723C4.58232 25.7251 4.51761 25.7252 4.45071 25.723L-0.00536108 25.723L-0.00536051 19.2079C-0.00536096 24.3328 2.85072 25.6707 4.45071 25.723L4.64453 25.723Z" fill="#FF004D"/>
<rect x="12.8633" y="9.10742" width="8.57497" height="8.57497" rx="4.28749" fill="url(#paint0_radial_5728_14241)"/>
<defs>
<radialGradient id="paint0_radial_5728_14241" cx="0" cy="0" r="1" gradientUnits="userSpaceOnUse" gradientTransform="translate(19.6883 11.3941) rotate(143.842) scale(8.34161 17.0764)">
<stop stop-color="#FF004D"/>
<stop offset="1" stop-color="#99002E"/>
</radialGradient>
</defs>
</svg>
