<svg width="36" height="36" viewBox="0 0 36 36" fill="none" xmlns="http://www.w3.org/2000/svg">
<path d="M35.8223 5.98438L34.3816 9.74972L32.9773 13.4197H18.248L18.9549 11.5731L19.3658 10.4997C20.4066 7.78023 23.0167 5.98438 25.9286 5.98438H35.8223Z" fill="#FDC101"/>
<path d="M26.3614 15.4473L24.3334 21.2466L23.6376 23.2341H11.4531L9.21131 29.6419H0L2.24182 23.2341L3.11566 20.7367C4.22366 17.5687 7.21314 15.4473 10.5693 15.4473H26.3614Z" fill="#FDC101"/>
<path d="M15.5466 9.6985C15.5466 11.7532 13.8825 13.4197 11.829 13.4197C9.77546 13.4197 8.11133 11.7532 8.11133 9.6985C8.11133 7.64376 9.65479 6.10165 11.6017 5.98438H12.0563C14.0038 6.10165 15.5466 7.7196 15.5466 9.6985Z" fill="#FDC101"/>
</svg>
