<svg width="203" height="27" viewBox="0 0 203 27" fill="none" xmlns="http://www.w3.org/2000/svg">
<path d="M193.957 6.95117C195.53 6.95118 196.875 7.03241 197.986 7.19824H197.985C199.129 7.36764 200.096 7.71231 200.854 8.26074C201.636 8.82556 202.182 9.64897 202.516 10.6846C202.846 11.7091 203 13.034 203 14.6348C203 16.2823 202.845 17.6413 202.517 18.6885C202.185 19.7459 201.64 20.5873 200.858 21.1621L200.854 21.165C200.095 21.7137 199.128 22.0536 197.985 22.2148H197.986C196.875 22.3807 195.53 22.4619 193.957 22.4619C192.392 22.4619 191.047 22.3805 189.929 22.2148L189.508 22.1455C188.547 21.9649 187.724 21.645 187.06 21.165L187.056 21.1621C186.274 20.5873 185.73 19.7459 185.397 18.6885C185.069 17.6413 184.914 16.2823 184.914 14.6348C184.914 13.034 185.068 11.7092 185.398 10.6846C185.732 9.64898 186.278 8.82555 187.06 8.26074C187.818 7.71236 188.785 7.36763 189.929 7.19824C191.047 7.03256 192.392 6.95117 193.957 6.95117ZM193.387 21.8984L193.957 21.9023C193.762 21.9023 193.571 21.9 193.384 21.8975L193.387 21.8984ZM191.524 21.8223C191.551 21.8242 191.578 21.8263 191.604 21.8281C191.578 21.8263 191.551 21.8242 191.524 21.8223ZM198.491 21.5557C198.545 21.5442 198.598 21.5338 198.65 21.5215C198.598 21.5338 198.545 21.5442 198.491 21.5557ZM188.451 21.2734C188.696 21.3672 188.958 21.4496 189.237 21.5166C188.958 21.4496 188.696 21.3672 188.451 21.2734ZM198.833 21.4746C198.886 21.4606 198.939 21.4467 198.99 21.4316C198.938 21.4466 198.886 21.4606 198.833 21.4746ZM199.162 21.3779C199.217 21.3602 199.272 21.3432 199.326 21.3242C199.272 21.3432 199.217 21.3602 199.162 21.3779ZM199.524 21.249C199.554 21.2375 199.583 21.2268 199.611 21.2148C199.583 21.2268 199.554 21.2375 199.524 21.249ZM199.833 21.1152C199.856 21.1042 199.879 21.0933 199.902 21.082C199.879 21.0933 199.856 21.1042 199.833 21.1152ZM200.092 20.9824C200.126 20.9637 200.159 20.9451 200.192 20.9258C200.159 20.9452 200.126 20.9637 200.092 20.9824ZM187.646 20.8838C187.675 20.9015 187.706 20.9165 187.735 20.9336C187.614 20.8632 187.497 20.7903 187.388 20.7109L187.646 20.8838ZM200.343 20.833C200.361 20.8211 200.381 20.811 200.399 20.7988L200.502 20.7275C200.45 20.7642 200.397 20.7983 200.343 20.833ZM200.896 20.3926C200.922 20.3665 200.95 20.3415 200.976 20.3145C200.95 20.3415 200.922 20.3665 200.896 20.3926ZM201.083 20.1934C201.113 20.1589 201.145 20.1257 201.174 20.0898C201.145 20.1257 201.113 20.1589 201.083 20.1934ZM193.957 19.9766L193.76 19.9746C193.825 19.9749 193.891 19.9775 193.957 19.9775C194.14 19.9775 194.318 19.9735 194.49 19.9717C194.317 19.9735 194.14 19.9766 193.957 19.9766ZM191.858 19.9229C192.004 19.9311 192.154 19.9381 192.31 19.9443C192.154 19.9381 192.004 19.9311 191.858 19.9229ZM201.29 19.9336C201.312 19.9028 201.336 19.8725 201.357 19.8408C201.336 19.8725 201.312 19.9028 201.29 19.9336ZM199.033 19.2256C198.641 19.5089 198.079 19.7033 197.35 19.8086L197.025 19.8477C196.861 19.8655 196.686 19.8794 196.502 19.8936C196.814 19.8696 197.097 19.8431 197.351 19.8086C198.185 19.6883 198.798 19.4516 199.191 19.0986L199.033 19.2256ZM190.599 19.8125C190.826 19.8424 191.076 19.8669 191.347 19.8887C191.187 19.8759 191.035 19.8633 190.891 19.8477L190.599 19.8125ZM189.539 19.5625C189.822 19.6656 190.149 19.7448 190.521 19.8008C190.149 19.7448 189.822 19.6655 189.539 19.5625ZM201.464 19.6748C201.486 19.6387 201.509 19.6026 201.53 19.5654C201.509 19.6026 201.486 19.6387 201.464 19.6748ZM189.06 19.3418C189.122 19.3785 189.188 19.4132 189.258 19.4463C189.118 19.38 188.993 19.3064 188.881 19.2256L189.06 19.3418ZM185.932 18.5205C186.037 18.8562 186.166 19.1623 186.314 19.4404C186.166 19.1625 186.037 18.8569 185.932 18.5215C185.907 18.4438 185.887 18.3631 185.864 18.2812C185.887 18.3628 185.907 18.4431 185.932 18.5205ZM193.957 9.99609C192.54 9.99609 191.439 10.0571 190.644 10.1719C189.859 10.285 189.372 10.4962 189.097 10.7432L189.092 10.748C188.823 10.984 188.611 11.3692 188.505 11.9756C188.4 12.6224 188.345 13.5052 188.345 14.6348C188.345 15.8052 188.4 16.7214 188.505 17.3936L188.55 17.6201C188.666 18.1249 188.861 18.4638 189.1 18.6836C189.375 18.9296 189.862 19.1411 190.644 19.2539L190.957 19.291C191.722 19.3734 192.719 19.417 193.957 19.417C195.38 19.417 196.481 19.3599 197.271 19.2529C198.052 19.1402 198.538 18.9295 198.813 18.6836C199.084 18.4342 199.296 18.0306 199.396 17.3994L199.396 17.3936C199.509 16.7236 199.569 15.8076 199.569 14.6348C199.569 13.5026 199.51 12.62 199.397 11.9756L199.396 11.9688C199.298 11.3644 199.089 10.9822 198.822 10.748L198.817 10.7432C198.542 10.4962 198.055 10.285 197.271 10.1719L197.27 10.1709C196.482 10.0563 195.382 9.9961 193.957 9.99609ZM201.617 19.4062C201.64 19.362 201.663 19.3172 201.686 19.2715C201.663 19.3172 201.64 19.3619 201.617 19.4062ZM201.77 19.0889C201.79 19.0407 201.811 18.992 201.831 18.9424C201.811 18.992 201.79 19.0407 201.77 19.0889ZM201.896 18.7744C201.904 18.7497 201.915 18.7253 201.924 18.7002L201.963 18.5771C201.941 18.6441 201.919 18.7098 201.896 18.7744ZM202.058 18.2588C202.067 18.2258 202.076 18.1928 202.085 18.1592C202.076 18.1928 202.067 18.2258 202.058 18.2588ZM202.125 17.9883C202.141 17.9183 202.158 17.8471 202.173 17.7744C202.158 17.8471 202.141 17.9183 202.125 17.9883ZM185.824 11.2256C185.591 12.1223 185.474 13.2589 185.474 14.6348C185.474 15.7995 185.554 16.796 185.712 17.625C185.554 16.7961 185.475 15.7993 185.475 14.6348C185.475 13.2593 185.591 12.1231 185.824 11.2266V11.2256ZM202.204 17.6084C202.218 17.5335 202.233 17.4575 202.246 17.3799C202.233 17.4575 202.218 17.5335 202.204 17.6084ZM202.284 17.1299C202.291 17.0803 202.297 17.0301 202.304 16.9795C202.297 17.0301 202.291 17.0803 202.284 17.1299ZM202.339 16.6895C202.345 16.635 202.35 16.58 202.355 16.5244C202.35 16.58 202.345 16.635 202.339 16.6895ZM199.847 11.4219C199.888 11.5647 199.923 11.717 199.949 11.8789C200.07 12.5688 200.13 13.4877 200.13 14.6348C200.13 13.4879 200.07 12.5697 199.949 11.8799C199.923 11.7177 199.889 11.565 199.847 11.4219ZM202.395 13.2773C202.39 13.2089 202.386 13.1411 202.381 13.0742C202.386 13.1411 202.39 13.2089 202.395 13.2773ZM202.346 12.7109C202.342 12.6763 202.34 12.6416 202.336 12.6074C202.34 12.6416 202.342 12.6763 202.346 12.7109ZM202.293 12.2803C202.287 12.2363 202.282 12.1926 202.275 12.1494C202.282 12.1926 202.287 12.2363 202.293 12.2803ZM202.234 11.9072C202.222 11.8377 202.21 11.7694 202.196 11.7021C202.21 11.7694 202.222 11.8377 202.234 11.9072ZM202.155 11.5088C202.14 11.4411 202.125 11.3748 202.108 11.3096C202.125 11.3748 202.14 11.4411 202.155 11.5088ZM202.064 11.1387C202.055 11.1047 202.048 11.0704 202.038 11.0371L201.997 10.9033C202.021 10.9797 202.042 11.0584 202.064 11.1387ZM186.351 9.88965C186.186 10.1792 186.046 10.5015 185.932 10.8564L186.055 10.5127C186.142 10.2908 186.241 10.0835 186.351 9.89062V9.88965ZM201.898 10.6182C201.887 10.5871 201.876 10.5559 201.864 10.5254C201.876 10.5559 201.887 10.5871 201.898 10.6182ZM198.918 10.125C199.008 10.1818 199.091 10.2417 199.166 10.3066C199.091 10.2418 199.008 10.1818 198.918 10.125ZM201.771 10.3066C201.758 10.2756 201.745 10.2443 201.73 10.2139C201.745 10.2443 201.758 10.2756 201.771 10.3066ZM201.643 10.041C201.621 9.99885 201.599 9.9569 201.576 9.91602C201.599 9.9569 201.621 9.99885 201.643 10.041ZM198.126 9.78223C198.178 9.79753 198.229 9.81341 198.279 9.83008C198.229 9.81342 198.178 9.79752 198.126 9.78223ZM201.503 9.79297C201.474 9.74508 201.446 9.69737 201.415 9.65137C201.446 9.69737 201.474 9.74508 201.503 9.79297ZM197.35 9.61719C197.367 9.61963 197.384 9.62247 197.4 9.625C197.384 9.6225 197.367 9.6196 197.351 9.61719C197.193 9.59417 197.023 9.57428 196.843 9.55566C197.023 9.57426 197.192 9.59421 197.35 9.61719ZM201.322 9.51953C201.292 9.47759 201.262 9.43575 201.23 9.39551C201.262 9.43574 201.292 9.47759 201.322 9.51953ZM186.922 9.11914C186.85 9.19386 186.781 9.2725 186.715 9.35449L186.922 9.12012C186.994 9.04524 187.069 8.97383 187.146 8.90625L186.922 9.11914ZM201.131 9.27637C201.097 9.23713 201.063 9.19861 201.028 9.16113C201.063 9.1986 201.097 9.23713 201.131 9.27637ZM200.942 9.07227C200.899 9.02916 200.856 8.98687 200.811 8.94629C200.856 8.98686 200.899 9.02917 200.942 9.07227ZM200.709 8.85938C200.689 8.84255 200.67 8.82396 200.649 8.80762L200.546 8.72949C200.602 8.77062 200.655 8.81491 200.709 8.85938ZM187.914 8.38965C187.726 8.48829 187.551 8.59698 187.388 8.71484L187.647 8.54199C187.733 8.48915 187.822 8.43789 187.914 8.38965ZM200.27 8.54297C200.182 8.48939 200.092 8.43851 199.999 8.38965C200.092 8.43848 200.182 8.48942 200.27 8.54297ZM188.202 8.25098C188.132 8.2823 188.063 8.31591 187.996 8.34961C188.063 8.31593 188.132 8.28229 188.202 8.25098ZM199.907 8.34473C199.845 8.31385 199.782 8.28277 199.718 8.25391C199.782 8.28275 199.845 8.31387 199.907 8.34473ZM188.517 8.12305C188.443 8.15058 188.371 8.18012 188.3 8.20996C188.371 8.18013 188.443 8.15057 188.517 8.12305ZM199.59 8.2002C199.529 8.17491 199.467 8.14957 199.404 8.12598C199.467 8.14955 199.529 8.17493 199.59 8.2002ZM188.873 8.00293C188.779 8.03157 188.687 8.06277 188.598 8.09473C188.687 8.06279 188.779 8.03156 188.873 8.00293ZM199.3 8.08887C199.218 8.06017 199.136 8.03185 199.051 8.00586C199.136 8.03183 199.218 8.06019 199.3 8.08887ZM189.226 7.90625C189.112 7.93429 189.002 7.96471 188.895 7.99707C189.002 7.96473 189.112 7.93429 189.226 7.90625ZM199.001 7.99121C198.901 7.96152 198.799 7.93421 198.694 7.9082C198.799 7.93419 198.901 7.96154 199.001 7.99121ZM189.588 7.8252C189.475 7.84761 189.364 7.87212 189.256 7.89844C189.364 7.87213 189.475 7.8476 189.588 7.8252ZM198.645 7.89551C198.544 7.87129 198.442 7.849 198.337 7.82812C198.442 7.84898 198.544 7.87131 198.645 7.89551ZM193.957 7.51074C192.409 7.51074 191.094 7.59156 190.011 7.75195L189.81 7.7832C189.754 7.79276 189.698 7.80399 189.644 7.81445C189.763 7.79163 189.886 7.77147 190.011 7.75293C191.094 7.59251 192.409 7.51173 193.957 7.51172C194.213 7.51172 194.464 7.5142 194.707 7.51855C194.648 7.5175 194.589 7.51545 194.529 7.51465L193.957 7.51074ZM197.095 7.65137C197.378 7.68048 197.648 7.71471 197.904 7.75293C198.025 7.77087 198.144 7.79054 198.26 7.8125C198.208 7.80277 198.157 7.79214 198.104 7.7832L197.903 7.75195C197.647 7.71376 197.378 7.68046 197.095 7.65137ZM196.465 7.5957C196.383 7.58964 196.301 7.58451 196.218 7.5791C196.301 7.58451 196.383 7.58964 196.465 7.5957ZM195.547 7.54297C195.473 7.53987 195.398 7.5378 195.322 7.53516C195.398 7.5378 195.473 7.53987 195.547 7.54297ZM199.799 18.1094C199.815 18.0609 199.831 18.0117 199.846 17.9609C199.831 18.0117 199.815 18.0609 199.799 18.1094ZM199.949 17.4863L199.992 17.208C200.001 17.1409 200.008 17.0717 200.017 17.001C199.997 17.1732 199.975 17.3353 199.949 17.4863ZM202.381 16.2373C202.39 16.1161 202.398 15.9924 202.405 15.8662C202.398 15.9924 202.39 16.1161 202.381 16.2373ZM202.411 15.7637C202.42 15.592 202.427 15.416 202.432 15.2354C202.427 15.416 202.42 15.592 202.411 15.7637ZM202.436 14.2803C202.434 14.21 202.434 14.1403 202.433 14.0713C202.434 14.1403 202.434 14.21 202.436 14.2803ZM202.428 13.9521C202.423 13.8082 202.418 13.6673 202.411 13.5293C202.418 13.6673 202.423 13.8082 202.428 13.9521ZM200.444 8.65918C200.387 8.61991 200.33 8.57999 200.27 8.54297C200.33 8.57997 200.387 8.61993 200.444 8.65918Z" fill="white"/>
<path d="M173.991 7.21582H182.521V10.2373H173.991V16.6318C173.991 17.5064 174.071 18.0936 174.195 18.4414L174.235 18.5342C174.341 18.7411 174.517 18.8843 174.817 18.9668C175.25 19.0832 175.944 19.1523 176.933 19.1523C177.815 19.1523 178.489 19.1241 178.964 19.0713H178.965C179.409 19.0227 179.641 18.9032 179.757 18.79C179.872 18.6695 180 18.4103 180.058 17.9043C180.118 17.3743 180.15 16.6081 180.15 15.5967V15.0371H183.316V15.5967C183.316 16.9433 183.231 18.052 183.052 18.9072H183.053C182.879 19.7771 182.548 20.5003 182.017 21.0137V21.0146C181.497 21.5241 180.793 21.8345 179.956 21.9844C179.156 22.129 178.145 22.1973 176.933 22.1973C175.491 22.1973 174.293 22.0551 173.363 21.748L173.359 21.7471C172.389 21.4174 171.65 20.8241 171.191 19.9639L171.188 19.957C170.753 19.1138 170.561 17.9887 170.561 16.6318V3.42578H173.991V7.21582ZM175.025 21.5322C175.591 21.6024 176.227 21.6377 176.933 21.6377C177.231 21.6377 177.516 21.6335 177.787 21.625C177.516 21.6335 177.231 21.6367 176.933 21.6367C176.05 21.6367 175.277 21.5824 174.614 21.4727L175.025 21.5322ZM179.25 21.5215C179.041 21.5462 178.82 21.5663 178.586 21.583C178.82 21.5663 179.041 21.5462 179.25 21.5215ZM173.539 21.2158C173.752 21.286 173.982 21.3477 174.229 21.4004L173.872 21.3145C173.757 21.2838 173.646 21.2509 173.54 21.2158C173.434 21.1797 173.33 21.1405 173.231 21.0977L173.539 21.2158ZM181.209 20.9395C181.057 21.0358 180.89 21.1195 180.708 21.1924C180.89 21.1195 181.057 21.0358 181.209 20.9395ZM172.681 20.7998C172.765 20.8563 172.853 20.9093 172.945 20.959L172.682 20.7998C172.597 20.7433 172.516 20.6834 172.438 20.6201L172.681 20.7998ZM181.778 20.4512C181.746 20.4888 181.712 20.5236 181.678 20.5586C181.763 20.4705 181.845 20.3755 181.919 20.2705L181.778 20.4512ZM171.262 18.3857C171.356 18.8971 171.498 19.3352 171.687 19.7002C171.831 19.9709 172.008 20.2111 172.218 20.4209L172.019 20.2002C171.893 20.0469 171.783 19.8796 171.687 19.6992C171.498 19.3344 171.356 18.8967 171.262 18.3857ZM171.12 16.6318C171.12 16.7962 171.124 16.9561 171.13 17.1113L171.121 16.6318V3.98535H171.12V16.6318ZM180.704 16.3184L180.705 16.3174L180.711 15.5967H180.71C180.71 15.8514 180.708 16.0922 180.704 16.3184Z" fill="white"/>
<path d="M158.85 6.94922C160.423 6.94922 161.768 7.03046 162.879 7.19629H162.878C164.021 7.36568 164.988 7.71036 165.747 8.25879C166.528 8.8236 167.075 9.64702 167.408 10.6826C167.738 11.7072 167.893 13.032 167.893 14.6328C167.893 16.2803 167.738 17.6394 167.409 18.6865C167.077 19.7439 166.533 20.5854 165.751 21.1602L165.747 21.1631C164.988 21.7118 164.02 22.0516 162.878 22.2129H162.879C161.768 22.3787 160.423 22.46 158.85 22.46C157.284 22.46 155.94 22.3786 154.821 22.2129L154.4 22.1436C153.44 21.9629 152.616 21.6431 151.952 21.1631L151.948 21.1602C151.166 20.5854 150.622 19.744 150.29 18.6865C149.961 17.6393 149.807 16.2804 149.807 14.6328C149.807 13.032 149.961 11.7072 150.291 10.6826C150.625 9.64703 151.171 8.8236 151.952 8.25879C152.711 7.71041 153.678 7.36567 154.821 7.19629C155.94 7.0306 157.284 6.94922 158.85 6.94922ZM153.344 21.2715C153.589 21.3652 153.851 21.4477 154.13 21.5146C153.851 21.4477 153.589 21.3653 153.344 21.2715ZM152.539 20.8818C152.568 20.8995 152.598 20.9145 152.628 20.9316C152.507 20.8612 152.39 20.7883 152.28 20.709L152.539 20.8818ZM163.926 19.2236C163.87 19.2641 163.81 19.302 163.747 19.3389C163.684 19.3758 163.618 19.4111 163.548 19.4443C163.199 19.6103 162.763 19.7315 162.242 19.8066C162.036 19.8347 161.81 19.8588 161.565 19.8799C161.076 19.922 160.511 19.9498 159.869 19.9639C159.548 19.9709 159.208 19.9746 158.85 19.9746C157.442 19.9746 156.322 19.9198 155.491 19.8105C156.322 19.9198 157.441 19.9756 158.85 19.9756C160.285 19.9756 161.417 19.9189 162.243 19.8066C163.077 19.6863 163.691 19.4496 164.084 19.0967L163.926 19.2236ZM153.952 19.3398L153.951 19.3389L153.952 19.3398ZM150.824 18.5186C150.93 18.8542 151.058 19.1604 151.207 19.4385C151.059 19.1605 150.93 18.8549 150.824 18.5195C150.8 18.4418 150.779 18.3612 150.757 18.2793C150.779 18.3609 150.8 18.4411 150.824 18.5186ZM158.85 9.99414C157.433 9.99414 156.332 10.0551 155.536 10.1699C154.752 10.2831 154.264 10.4943 153.989 10.7412L153.984 10.7461C153.716 10.9821 153.503 11.3673 153.397 11.9736C153.293 12.6204 153.237 13.5032 153.237 14.6328C153.237 15.8032 153.292 16.7194 153.397 17.3916L153.442 17.6182C153.559 18.123 153.754 18.4618 153.992 18.6816C154.268 18.9277 154.754 19.1392 155.536 19.252L155.85 19.2891C156.614 19.3715 157.612 19.415 158.85 19.415C160.273 19.415 161.374 19.3579 162.163 19.251C162.945 19.1382 163.431 18.9275 163.706 18.6816C163.977 18.4322 164.189 18.0287 164.288 17.3975L164.289 17.3916C164.402 16.7217 164.462 15.8057 164.462 14.6328C164.462 13.5006 164.402 12.6181 164.29 11.9736L164.289 11.9668C164.191 11.3625 163.981 10.9802 163.715 10.7461L163.71 10.7412C163.435 10.4943 162.947 10.2831 162.163 10.1699L162.162 10.1689C161.375 10.0543 160.275 9.99414 158.85 9.99414ZM164.793 17.7432C164.756 17.9108 164.711 18.0674 164.656 18.2129L164.731 17.9873C164.754 17.909 164.775 17.8279 164.793 17.7441V17.7432ZM150.717 11.2236C150.483 12.1203 150.366 13.257 150.366 14.6328C150.366 15.7975 150.447 16.7941 150.604 17.623C150.447 16.7941 150.367 15.7974 150.367 14.6328C150.367 13.2573 150.483 12.1212 150.717 11.2246V11.2236ZM164.731 11.3916C164.777 11.5426 164.814 11.7044 164.842 11.877C164.962 12.5668 165.022 13.4857 165.022 14.6328C165.022 15.6718 164.977 16.5296 164.885 17.2061C164.977 16.5296 165.022 15.6717 165.022 14.6328C165.022 13.486 164.962 12.5677 164.842 11.8779C164.814 11.7055 164.777 11.5435 164.731 11.3926V11.3916ZM150.947 10.5107L150.946 10.5098L150.947 10.5107ZM163.643 10.0264C163.801 10.1092 163.939 10.2014 164.059 10.3047C163.939 10.2014 163.801 10.1092 163.643 10.0264ZM163.031 9.7832C163.171 9.82454 163.301 9.87169 163.423 9.92285C163.301 9.87172 163.171 9.82451 163.031 9.7832ZM162.242 9.61523C162.259 9.61767 162.276 9.62051 162.293 9.62305C162.276 9.62054 162.26 9.61764 162.243 9.61523C162.231 9.61339 162.218 9.61119 162.205 9.60938C162.218 9.61114 162.23 9.61344 162.242 9.61523ZM161.537 9.5332C161.558 9.53507 161.578 9.53714 161.599 9.53906C161.578 9.53714 161.558 9.53507 161.537 9.5332ZM158.85 7.50879C157.302 7.50879 155.986 7.58961 154.903 7.75C153.956 7.89035 153.168 8.15411 152.54 8.54004C153.168 8.15406 153.956 7.89036 154.903 7.75C155.986 7.58958 157.302 7.50978 158.85 7.50977C160.382 7.50977 161.681 7.5877 162.746 7.74316C161.681 7.58765 160.382 7.50879 158.85 7.50879ZM164.582 8.23828C164.825 8.34509 165.049 8.46859 165.256 8.60352C165.049 8.46855 164.825 8.34513 164.582 8.23828ZM163.192 7.81738C163.523 7.88162 163.831 7.96532 164.118 8.0625C163.831 7.96529 163.523 7.88165 163.192 7.81738Z" fill="white"/>
<path d="M133.874 8.26074C134.008 8.15873 134.148 8.06197 134.294 7.97168L134.298 7.96973C134.889 7.60949 135.642 7.35895 136.531 7.19922L136.884 7.14062C137.732 7.01174 138.775 6.94922 140.004 6.94922C141.843 6.94924 143.34 7.12716 144.466 7.50781C145.643 7.90333 146.516 8.6272 147.029 9.68262C147.524 10.6994 147.747 12.0814 147.747 13.7783V22.1953H144.305V13.7783C144.305 12.8568 144.225 12.1506 144.084 11.6416C143.949 11.1565 143.731 10.8355 143.456 10.6279L143.452 10.624C143.169 10.406 142.739 10.2335 142.115 10.1455L142.108 10.1445C141.465 10.0462 140.63 9.99512 139.595 9.99512C138.013 9.99512 136.814 10.1268 135.973 10.3701C135.136 10.6123 134.626 10.9706 134.347 11.3926L134.344 11.3955C134.047 11.8381 133.874 12.4531 133.874 13.2852V22.1953H130.443V2.59375H133.874V8.26074ZM144.865 13.7793L144.864 13.7783V21.6357H144.865V13.7793ZM131.003 21.6357H131.004V3.1543H133.313V3.15332H131.003V21.6357ZM146.895 10.9785C146.942 11.1662 146.986 11.363 147.021 11.5703C146.986 11.363 146.942 11.1662 146.895 10.9785ZM144.771 12.2207L144.771 12.2197L144.771 12.2207ZM144.481 11.085C144.482 11.0863 144.483 11.0875 144.483 11.0889C144.456 11.0244 144.426 10.9623 144.395 10.9023L144.481 11.085ZM143.849 10.2266C144.042 10.3838 144.205 10.5764 144.339 10.8057C144.205 10.5764 144.042 10.3837 143.849 10.2266ZM146.681 10.2861C146.705 10.3484 146.728 10.4123 146.75 10.4775C146.728 10.412 146.705 10.3477 146.681 10.2852V10.2861ZM146.525 9.92871C146.553 9.98521 146.58 10.0431 146.605 10.1025L146.525 9.92773C146.506 9.88827 146.485 9.84994 146.465 9.81152C146.485 9.85017 146.506 9.889 146.525 9.92871ZM139.013 7.52441C138.856 7.52943 138.703 7.53544 138.554 7.54297C138.405 7.55049 138.261 7.5593 138.12 7.56934C137.559 7.60944 137.064 7.66983 136.635 7.75C135.784 7.90241 135.102 8.1354 134.589 8.44824C134.084 8.7607 133.659 9.14882 133.314 9.61328V9.61621C133.659 9.15096 134.084 8.76108 134.59 8.44824C135.103 8.13557 135.785 7.90334 136.635 7.75098C137.386 7.61059 138.34 7.53122 139.496 7.51367L139.013 7.52441ZM146.022 9.16016C146.113 9.26475 146.196 9.37536 146.273 9.49121C146.162 9.32445 146.038 9.16884 145.9 9.02539L146.022 9.16016ZM145.239 8.4873C145.379 8.57629 145.511 8.67224 145.635 8.77637L145.491 8.66113C145.411 8.59998 145.326 8.54262 145.239 8.4873ZM144.48 8.10938C144.607 8.15773 144.729 8.20963 144.846 8.2666C144.67 8.18103 144.484 8.1052 144.287 8.03906L144.48 8.10938ZM140.665 7.51758C141.309 7.53411 141.899 7.5754 142.435 7.6416C141.899 7.57538 141.309 7.53412 140.665 7.51758Z" fill="white"/>
<path d="M119.287 6.94922C120.86 6.94922 122.205 7.03046 123.316 7.19629H123.315C124.459 7.36568 125.426 7.71036 126.185 8.25879C126.966 8.8236 127.512 9.64702 127.846 10.6826C128.176 11.7072 128.33 13.032 128.33 14.6328C128.33 16.2803 128.176 17.6394 127.847 18.6865C127.515 19.7439 126.97 20.5854 126.188 21.1602L126.185 21.1631C125.425 21.7118 124.458 22.0516 123.315 22.2129H123.316C122.205 22.3787 120.86 22.46 119.287 22.46C117.778 22.46 116.479 22.3463 115.4 22.1104C114.753 21.9675 114.176 21.7191 113.675 21.3672V26.8154H110.244V7.21387H113.675V8.03809C114.176 7.68857 114.754 7.44158 115.401 7.29883C116.48 7.06297 117.778 6.94922 119.287 6.94922ZM110.804 26.2559H110.805V7.77441H110.804V26.2559ZM117.813 21.8584C117.842 21.8601 117.871 21.8607 117.899 21.8623C117.871 21.8607 117.842 21.8601 117.813 21.8584ZM117.345 21.8242C117.406 21.8293 117.467 21.8343 117.529 21.8389C117.467 21.8343 117.406 21.8293 117.345 21.8242ZM116.921 21.7832C116.971 21.7886 117.021 21.7938 117.072 21.7988C117.021 21.7938 116.971 21.7886 116.921 21.7832ZM116.471 21.7285C116.542 21.7383 116.614 21.7479 116.687 21.7568C116.614 21.7479 116.542 21.7383 116.471 21.7285ZM116.093 21.6709C116.15 21.6804 116.207 21.6903 116.266 21.6992C116.207 21.6903 116.15 21.6804 116.093 21.6709ZM115.521 21.5635C115.637 21.5889 115.757 21.6122 115.879 21.6348C115.757 21.6122 115.638 21.5889 115.521 21.5635C115.506 21.5601 115.491 21.5553 115.476 21.5518C115.491 21.5552 115.505 21.5601 115.521 21.5635ZM123.821 21.5537C123.875 21.5423 123.928 21.5319 123.98 21.5195C123.928 21.5319 123.875 21.5423 123.821 21.5537ZM124.163 21.4727C124.216 21.4587 124.269 21.4447 124.32 21.4297C124.269 21.4447 124.216 21.4587 124.163 21.4727ZM124.492 21.376C124.548 21.3582 124.602 21.3413 124.656 21.3223C124.602 21.3413 124.548 21.3582 124.492 21.376ZM114.466 21.1924C114.535 21.2277 114.607 21.2594 114.68 21.291C114.552 21.2351 114.428 21.1749 114.309 21.1074L114.466 21.1924ZM124.854 21.2471C124.884 21.2355 124.913 21.2248 124.941 21.2129C124.913 21.2248 124.884 21.2355 124.854 21.2471ZM125.148 21.1201C125.182 21.1045 125.215 21.0885 125.247 21.0723C125.215 21.0885 125.182 21.1045 125.148 21.1201ZM125.405 20.9893C125.448 20.9657 125.491 20.9426 125.533 20.918C125.491 20.9426 125.448 20.9657 125.405 20.9893ZM113.115 20.0479C113.335 20.3425 113.585 20.5978 113.865 20.8135C113.631 20.6336 113.419 20.4261 113.228 20.1914L113.115 20.0479ZM125.673 20.8311C125.691 20.8191 125.711 20.809 125.729 20.7969L125.832 20.7256C125.781 20.7622 125.727 20.7963 125.673 20.8311ZM126.226 20.3906C126.252 20.3646 126.28 20.3395 126.306 20.3125C126.28 20.3395 126.252 20.3645 126.226 20.3906ZM126.413 20.1914C126.443 20.157 126.475 20.1237 126.504 20.0879C126.475 20.1237 126.443 20.157 126.413 20.1914ZM119.287 19.9746L119.105 19.9727C119.165 19.9729 119.226 19.9756 119.287 19.9756C119.47 19.9756 119.648 19.9715 119.82 19.9697C119.648 19.9715 119.47 19.9746 119.287 19.9746ZM126.629 19.9219C126.649 19.8945 126.668 19.8669 126.688 19.8389C126.668 19.867 126.649 19.8945 126.629 19.9219ZM124.363 19.2236C124.307 19.2641 124.247 19.302 124.185 19.3389C124.122 19.3758 124.055 19.4111 123.985 19.4443C123.636 19.6103 123.201 19.7315 122.68 19.8066L122.355 19.8457C122.191 19.8636 122.017 19.8774 121.832 19.8916C122.144 19.8677 122.427 19.8412 122.681 19.8066C123.515 19.6863 124.128 19.4496 124.521 19.0967L124.363 19.2236ZM126.794 19.6729C126.816 19.6367 126.839 19.6007 126.86 19.5635C126.839 19.6007 126.816 19.6367 126.794 19.6729ZM114.606 19.3398C114.718 19.4022 114.838 19.4578 114.967 19.5098C114.838 19.4579 114.718 19.4021 114.606 19.3398ZM119.287 9.99414C117.993 9.99414 116.964 10.0543 116.192 10.1689C115.439 10.2809 114.926 10.4926 114.6 10.7588L114.595 10.7627C114.285 11.0093 114.04 11.4022 113.9 12.0039C113.754 12.6346 113.675 13.5057 113.675 14.6328C113.675 15.8005 113.754 16.7048 113.901 17.3613C114.043 17.99 114.291 18.4038 114.604 18.665C114.931 18.9298 115.442 19.1404 116.192 19.252L116.494 19.29C117.227 19.3723 118.156 19.415 119.287 19.415C120.71 19.415 121.811 19.3579 122.601 19.251C123.382 19.1382 123.868 18.9275 124.144 18.6816C124.414 18.4322 124.626 18.0287 124.726 17.3975L124.727 17.3916C124.839 16.7217 124.899 15.8057 124.899 14.6328C124.899 13.5006 124.84 12.6181 124.728 11.9736L124.727 11.9668C124.628 11.3625 124.419 10.9802 124.152 10.7461L124.147 10.7412C123.872 10.4943 123.385 10.2831 122.601 10.1699L122.6 10.1689C121.812 10.0543 120.712 9.99414 119.287 9.99414ZM126.947 19.4043C126.97 19.36 126.994 19.3153 127.016 19.2695C126.994 19.3153 126.97 19.36 126.947 19.4043ZM127.1 19.0869C127.121 19.0388 127.141 18.9901 127.161 18.9404C127.141 18.9901 127.121 19.0387 127.1 19.0869ZM127.226 18.7725C127.235 18.7477 127.245 18.7233 127.254 18.6982L127.293 18.5752C127.271 18.6421 127.249 18.7079 127.226 18.7725ZM127.381 18.2793C127.392 18.239 127.404 18.1986 127.415 18.1572C127.404 18.1986 127.392 18.239 127.381 18.2793ZM127.462 17.957C127.476 17.8964 127.49 17.8351 127.503 17.7725C127.49 17.8351 127.476 17.8964 127.462 17.957ZM127.534 17.6104C127.549 17.5342 127.563 17.4569 127.576 17.3779C127.563 17.4569 127.549 17.5342 127.534 17.6104ZM127.614 17.1279C127.622 17.0758 127.628 17.023 127.635 16.9697C127.628 17.023 127.622 17.0758 127.614 17.1279ZM127.668 16.6924C127.674 16.6331 127.681 16.5733 127.687 16.5127C127.681 16.5733 127.674 16.6331 127.668 16.6924ZM127.712 16.2305C127.717 16.1632 127.721 16.0951 127.726 16.0264C127.721 16.0951 127.717 16.1632 127.712 16.2305ZM125.222 11.5908C125.244 11.6827 125.263 11.778 125.279 11.877C125.385 12.4805 125.441 13.2593 125.454 14.2129C125.441 13.2597 125.385 12.4814 125.279 11.8779C125.263 11.7787 125.244 11.6829 125.222 11.5908ZM127.676 12.7012C127.672 12.6701 127.669 12.6391 127.666 12.6084C127.669 12.6391 127.672 12.6701 127.676 12.7012ZM127.62 12.252C127.615 12.2188 127.61 12.186 127.605 12.1533C127.61 12.186 127.615 12.2188 127.62 12.252ZM127.564 11.9053C127.552 11.8358 127.54 11.7674 127.526 11.7002C127.54 11.7674 127.552 11.8358 127.564 11.9053ZM127.485 11.5068C127.47 11.4392 127.455 11.3728 127.438 11.3076C127.455 11.3728 127.47 11.4392 127.485 11.5068ZM127.395 11.1367C127.385 11.1027 127.378 11.0684 127.368 11.0352L127.327 10.9014C127.351 10.9777 127.373 11.0564 127.395 11.1367ZM127.212 10.5703C127.206 10.5547 127.2 10.5389 127.194 10.5234C127.2 10.5389 127.206 10.5547 127.212 10.5703ZM124.08 10.0264C124.238 10.1092 124.377 10.2014 124.496 10.3047C124.377 10.2014 124.238 10.1092 124.08 10.0264ZM127.102 10.3047C127.088 10.2736 127.075 10.2424 127.061 10.2119C127.075 10.2424 127.088 10.2736 127.102 10.3047ZM126.973 10.0391C126.952 9.999 126.932 9.95882 126.91 9.91992C126.932 9.95882 126.952 9.999 126.973 10.0391ZM123.469 9.7832C123.609 9.82454 123.739 9.87169 123.86 9.92285C123.739 9.87171 123.609 9.82451 123.469 9.7832ZM126.822 9.77246C126.797 9.73129 126.772 9.69015 126.746 9.65039C126.772 9.69015 126.797 9.73129 126.822 9.77246ZM122.68 9.61523C122.697 9.61767 122.714 9.62051 122.73 9.62305C122.714 9.62054 122.697 9.61764 122.681 9.61523C122.513 9.59076 122.332 9.5693 122.139 9.5498C122.332 9.56928 122.512 9.59081 122.68 9.61523ZM126.652 9.51758C126.622 9.47564 126.592 9.43379 126.561 9.39355C126.592 9.43379 126.622 9.47564 126.652 9.51758ZM115.521 7.8457C114.503 8.0702 113.701 8.57141 113.115 9.34863V9.35059C113.701 8.57263 114.503 8.07126 115.521 7.84668L115.521 7.8457ZM126.456 9.26855C126.426 9.23414 126.397 9.20004 126.366 9.16699C126.397 9.20004 126.426 9.23414 126.456 9.26855ZM126.263 9.06055C126.223 9.02152 126.184 8.98322 126.143 8.94629C126.184 8.98322 126.223 9.02153 126.263 9.06055ZM126.039 8.85742C126.019 8.8406 126 8.82201 125.979 8.80566L125.876 8.72754C125.932 8.76867 125.986 8.81295 126.039 8.85742ZM125.6 8.54102C125.513 8.48744 125.422 8.43655 125.329 8.3877C125.422 8.43653 125.513 8.48746 125.6 8.54102ZM125.237 8.34277C125.175 8.3119 125.113 8.28082 125.048 8.25195C125.113 8.2808 125.175 8.31192 125.237 8.34277ZM124.92 8.19824C124.859 8.17295 124.797 8.14762 124.734 8.12402C124.797 8.1476 124.859 8.17297 124.92 8.19824ZM124.63 8.08691C124.549 8.05821 124.466 8.0299 124.381 8.00391C124.466 8.02988 124.549 8.05824 124.63 8.08691ZM124.326 7.98828C124.236 7.9616 124.145 7.93581 124.051 7.91211C124.145 7.93579 124.236 7.96162 124.326 7.98828ZM123.934 7.88379C123.848 7.86355 123.76 7.84496 123.671 7.82715C123.76 7.84495 123.848 7.86356 123.934 7.88379ZM123.585 7.80957C123.535 7.80017 123.485 7.78991 123.435 7.78125L123.243 7.75098C123.36 7.76833 123.473 7.7885 123.585 7.80957ZM122.425 7.64941C122.695 7.67714 122.952 7.70913 123.197 7.74512C122.952 7.70913 122.695 7.67714 122.425 7.64941ZM119.287 7.50879C118.916 7.50879 118.559 7.51623 118.217 7.53027C118.046 7.5373 117.878 7.54611 117.714 7.55664C117.222 7.58822 116.762 7.63606 116.334 7.69922L116.772 7.6416C117.521 7.55384 118.36 7.50978 119.287 7.50977C119.528 7.50977 119.764 7.51178 119.993 7.51562C119.949 7.51488 119.904 7.5133 119.859 7.5127L119.287 7.50879ZM121.795 7.59375C121.714 7.58768 121.631 7.58256 121.548 7.57715C121.631 7.58256 121.714 7.58768 121.795 7.59375ZM120.87 7.54102C120.815 7.53873 120.76 7.53719 120.704 7.53516C120.76 7.53719 120.815 7.53873 120.87 7.54102ZM125.132 18.0967C125.147 18.0516 125.162 18.0061 125.176 17.959C125.162 18.0061 125.147 18.0516 125.132 18.0967ZM125.279 17.4844L125.322 17.2061C125.331 17.1402 125.338 17.0723 125.346 17.0029C125.326 17.1737 125.305 17.3345 125.279 17.4844ZM125.774 8.65723C125.717 8.61796 125.66 8.57803 125.6 8.54102C125.66 8.57802 125.717 8.61797 125.774 8.65723Z" fill="white"/>
<path d="M106.972 22.1953H103.541V2.59375H106.972V22.1953ZM104.101 21.6357H104.102V3.1543H106.411V3.15332H104.101V21.6357Z" fill="white"/>
<path d="M91.9736 6.94922C93.7686 6.94922 95.2797 7.07512 96.4951 7.33496C97.7409 7.60135 98.7357 8.12305 99.4082 8.94531C100.101 9.78239 100.403 10.9538 100.403 12.3701V15.9023H86.4824C86.5083 16.6421 86.5728 17.2351 86.6729 17.6885C86.7874 18.2072 87.0027 18.5444 87.2842 18.7598C87.5819 18.9874 88.0807 19.176 88.8447 19.2744L89.4863 19.3359C90.1793 19.3883 91.0275 19.415 92.0342 19.415C93.2478 19.415 94.2174 19.3908 94.9463 19.3438L95.4521 19.2988C95.9144 19.2452 96.2493 19.1665 96.4736 19.0732C96.7586 18.9503 96.8986 18.7957 96.9678 18.6289C97.0646 18.3951 97.1289 18.0363 97.1289 17.5205V16.96H100.403V17.5205C100.403 18.5985 100.241 19.5125 99.8711 20.2178C99.5047 20.9313 98.9363 21.4551 98.1875 21.7773C97.4786 22.0824 96.6032 22.2627 95.5811 22.3379C94.5828 22.4197 93.3996 22.46 92.0342 22.46C90.4703 22.46 89.1268 22.3783 88.0088 22.2129C86.8719 22.0517 85.9078 21.7119 85.1484 21.1631L85.1426 21.1582C84.3694 20.583 83.8296 19.7422 83.498 18.6865L83.4971 18.6826C83.1774 17.6371 83.0274 16.2795 83.0273 14.6328C83.0273 13.0337 83.1738 11.7116 83.4854 10.6904L83.4863 10.6865C83.8109 9.65157 84.3478 8.82678 85.1211 8.26074C85.8717 7.71154 86.8285 7.36599 87.957 7.19629C89.0679 7.0305 90.4086 6.94923 91.9736 6.94922ZM87.3193 21.5146C87.4411 21.544 87.5662 21.5705 87.6943 21.5947C87.4384 21.5463 87.1952 21.4879 86.9648 21.4189L87.3193 21.5146ZM85.7354 20.8818C85.8252 20.937 85.9184 20.9891 86.0146 21.0391C85.8227 20.9393 85.643 20.8293 85.4766 20.709L85.7354 20.8818ZM97.6768 17.9141C97.6512 18.2872 97.5867 18.597 97.4844 18.8438C97.348 19.1726 97.0834 19.4214 96.6904 19.5898C96.3055 19.7502 95.7361 19.8542 94.9824 19.9023C94.2364 19.9505 93.2534 19.9746 92.0342 19.9746C91.6984 19.9746 91.379 19.9717 91.0762 19.9658C91.379 19.9717 91.6983 19.9756 92.0342 19.9756C93.2534 19.9756 94.2364 19.9514 94.9824 19.9033C95.7364 19.8552 96.3064 19.7503 96.6914 19.5898C97.0841 19.4215 97.349 19.1733 97.4854 18.8447C97.5876 18.5981 97.6512 18.2879 97.6768 17.915V17.9141ZM88.4785 19.7861C88.5737 19.8025 88.6719 19.818 88.7734 19.8311C89.1824 19.8792 89.6589 19.9144 90.2021 19.9385C89.6587 19.9144 89.1825 19.8782 88.7734 19.8301C88.672 19.817 88.5737 19.8025 88.4785 19.7861ZM84.1934 18.9629C84.2714 19.1562 84.3557 19.339 84.4502 19.5098L84.2949 19.2021C84.2591 19.1246 84.2263 19.0444 84.1934 18.9629ZM86.46 18.6621C86.5758 18.8501 86.7148 19.0112 86.877 19.1475C86.7148 19.0113 86.5758 18.8501 86.46 18.6621ZM84.0332 18.5195L84.0322 18.5186L84.0332 18.5195ZM83.6982 16.8193C83.7168 16.9814 83.7385 17.1382 83.7617 17.29L83.6992 16.8193C83.6807 16.6574 83.6643 16.4904 83.6504 16.3184L83.6982 16.8193ZM84.2773 10.1875C84.1805 10.3952 84.0948 10.6177 84.0205 10.8545C83.7318 11.801 83.5869 13.0607 83.5869 14.6328C83.5869 15.0379 83.5967 15.4226 83.6152 15.7871L83.5947 15.2256C83.5901 15.0331 83.5879 14.8354 83.5879 14.6328C83.5879 13.0606 83.7327 11.801 84.0215 10.8545C84.0956 10.618 84.1806 10.3959 84.2773 10.1885V10.1875ZM97.5791 11.585C97.6126 11.822 97.6289 12.0838 97.6289 12.3701V13.5254H85.9102V13.5264H97.6299V12.3711C97.6299 12.0844 97.6127 11.8222 97.5791 11.585ZM91.9736 9.99414C90.6768 9.99415 89.6467 10.0423 88.876 10.1348H88.877C88.1247 10.226 87.6185 10.398 87.3057 10.6084L87.2988 10.6133C87.0127 10.8005 86.8012 11.0853 86.6797 11.5146L86.6348 11.7041C86.561 12.0453 86.5097 12.4647 86.4854 12.9658H97.0693V12.3701C97.0693 11.8315 97.0043 11.4243 96.8975 11.1289L96.8936 11.1152C96.8132 10.8745 96.6552 10.6783 96.3799 10.5234L96.376 10.5225L96.3721 10.5205C96.0847 10.3529 95.6037 10.2078 94.8799 10.123C94.1651 10.0385 93.1988 9.99414 91.9736 9.99414ZM97.5137 11.2402C97.5344 11.3269 97.5522 11.4177 97.5674 11.5127C97.5429 11.3594 97.5118 11.2167 97.4727 11.085L97.5137 11.2402ZM99.6777 10.7891C99.7005 10.885 99.7202 10.9837 99.7383 11.085C99.7201 10.9834 99.7006 10.8843 99.6777 10.7881V10.7891ZM96.9307 10.2246C97.0624 10.3328 97.1712 10.4557 97.2588 10.5928C97.1711 10.4557 97.0625 10.3327 96.9307 10.2246ZM96.3311 9.88086C96.4503 9.92846 96.5581 9.98003 96.6543 10.0361C96.6717 10.0459 96.6882 10.0573 96.7051 10.0674C96.6884 10.0574 96.6725 10.0458 96.6553 10.0361C96.5108 9.95184 96.34 9.87759 96.1436 9.8125L96.3311 9.88086ZM99.2344 9.66797C99.2509 9.69534 99.2674 9.72285 99.2832 9.75098C99.2674 9.72285 99.2509 9.69534 99.2344 9.66797ZM91.9736 7.50879C91.3932 7.50879 90.846 7.52041 90.332 7.54297C90.1607 7.55049 89.993 7.55931 89.8291 7.56934C89.5012 7.58939 89.188 7.61444 88.8896 7.64453C88.7404 7.65958 88.5949 7.6758 88.4531 7.69336C88.3115 7.71089 88.1733 7.72996 88.0391 7.75C86.9723 7.91045 86.1099 8.23164 85.4521 8.71289C85.1234 8.95352 84.8401 9.25249 84.6016 9.60938L84.7891 9.35254C84.985 9.10664 85.2065 8.89337 85.4531 8.71289C86.1109 8.23168 86.9733 7.91042 88.04 7.75C89.1149 7.58959 90.4266 7.50977 91.9746 7.50977C92.8453 7.50977 93.6426 7.53961 94.3662 7.59961C94.0106 7.57012 93.6372 7.54723 93.2461 7.53223C93.0435 7.52446 92.8361 7.51853 92.624 7.51465C92.4121 7.51077 92.1951 7.50879 91.9736 7.50879ZM95.1875 9.59863C95.2105 9.60196 95.2332 9.60591 95.2559 9.60938C95.2332 9.60591 95.2105 9.60196 95.1875 9.59863ZM98.9766 9.30176L98.9775 9.30273C99.0214 9.35573 99.063 9.41103 99.1035 9.46777C99.0628 9.41075 99.0206 9.355 98.9766 9.30176ZM98.416 8.75977C98.4608 8.7943 98.5042 8.83002 98.5469 8.86621C98.5042 8.83001 98.4608 8.79431 98.416 8.75977ZM98.0586 8.51465C98.1301 8.55784 98.1986 8.60387 98.2656 8.65039C98.1986 8.60385 98.1301 8.55785 98.0586 8.51465ZM95.4482 7.71875C95.7772 7.76538 96.0871 7.82063 96.3779 7.88281C96.4938 7.90759 96.6068 7.93561 96.7168 7.96484C96.6066 7.93556 96.494 7.90665 96.3779 7.88184C96.0871 7.81966 95.7772 7.76538 95.4482 7.71875Z" fill="white"/>
<path d="M50.3682 4.72559H47.1133C45.9759 4.72559 45.1898 4.79896 44.7178 4.92383C44.3069 5.03261 44.1176 5.21887 44.0273 5.44629L43.9824 5.58008C43.884 5.91854 43.8223 6.43912 43.8223 7.17383V7.21484H50.3682V10.0918H43.8223V22.1963H40.3926V10.0918H38.082V7.21484H40.3926V7.17383C40.3926 5.81155 40.6102 4.6831 41.1104 3.85254L41.1123 3.84863C41.6284 3.00769 42.4227 2.44627 43.4424 2.14844L43.4434 2.14746C44.4271 1.86268 45.6603 1.72852 47.125 1.72852H50.3682V4.72559ZM40.9521 21.6367H40.9531L40.9521 9.53223V21.6367ZM38.6416 7.77539V9.53223H38.6426V7.77539H38.6416ZM40.9531 7.17383C40.9532 5.85849 41.1657 4.84743 41.5908 4.1416C42.0239 3.43607 42.6936 2.95121 43.5996 2.68652C44.5141 2.42181 45.6901 2.28906 47.126 2.28906H49.8086V2.28809H47.125C45.6892 2.28809 44.514 2.42087 43.5996 2.68555C42.9198 2.88409 42.3726 3.2066 41.959 3.65332C41.9245 3.69053 41.891 3.72865 41.8584 3.76758C41.7605 3.88442 41.6711 4.00925 41.5898 4.1416C41.1647 4.84749 40.9521 5.85836 40.9521 7.17383V7.77539H40.9531V7.17383Z" fill="white"/>
<path d="M56.3193 22.1953H52.8887V7.98438H56.3193V22.1953ZM53.4482 21.6357H55.7588V21.6348H53.4492V8.54395H53.4482V21.6357ZM56.3193 6.02441H52.8887V2.59375H56.3193V6.02441ZM53.4482 5.46387H53.4492V3.1543H55.7588V3.15332H53.4482V5.46387Z" fill="white"/>
<path d="M83.3711 7.07617L75.6113 14.6367L83.3711 22.1973H78.6455L78.4814 22.0352L71.0312 14.6367L78.4814 7.23828L78.6455 7.07617H83.3711ZM78.876 7.63574L78.875 7.63672H81.9922L74.8066 14.6377L81.9922 21.6377H81.9941L74.8086 14.6367L81.9941 7.63574H78.876Z" fill="white"/>
<path d="M63.4385 7.23828L70.8887 14.6367L63.4385 22.0352L63.2744 22.1973H58.5488L66.3086 14.6367L58.5488 7.07617H63.2744L63.4385 7.23828ZM59.9268 7.63672H63.041L70.0918 14.6377L63.041 21.6377H63.0439L70.0938 14.6367L63.0439 7.63574H59.9258L59.9268 7.63672Z" fill="#FDC101"/>
<path d="M35.8413 0L34.3999 3.76732L32.9948 7.43918H18.2578L18.9651 5.59167L19.3761 4.51769C20.4175 1.7968 23.029 0 25.9423 0H35.8413Z" fill="#FDC101"/>
<path d="M26.3753 9.46875L24.3461 15.2712L23.65 17.2597H11.4591L9.21614 23.6708H0L2.24299 17.2597L3.11729 14.761C4.22588 11.5913 7.21692 9.46875 10.5748 9.46875H26.3753Z" fill="#FDC101"/>
<path d="M15.5544 3.71607C15.5544 5.7719 13.8894 7.43918 11.8348 7.43918C9.78024 7.43918 8.11523 5.7719 8.11523 3.71607C8.11523 1.66025 9.65951 0.117335 11.6074 0H12.0623C14.0108 0.117335 15.5544 1.73614 15.5544 3.71607Z" fill="white"/>
</svg>
