<svg width="20" height="20" viewBox="0 0 20 20" fill="none" xmlns="http://www.w3.org/2000/svg">
<path d="M11.8753 8.125V13.125M8.12531 8.125V13.125M16.875 4.375L3.125 4.37501M15.6253 4.375V16.25C15.6253 16.4158 15.5595 16.5747 15.4422 16.6919C15.325 16.8092 15.1661 16.875 15.0003 16.875H5.00031C4.83455 16.875 4.67557 16.8092 4.55836 16.6919C4.44115 16.5747 4.37531 16.4158 4.37531 16.25V4.375M13.1253 4.375V3.125C13.1253 2.79348 12.9936 2.47554 12.7592 2.24112C12.5248 2.0067 12.2068 1.875 11.8753 1.875H8.12531C7.79378 1.875 7.47584 2.0067 7.24142 2.24112C7.007 2.47554 6.87531 2.79348 6.87531 3.125V4.375" stroke="#E50000" strokeWidth="1.5" strokeLinecap="round" strokeLinejoin="round"/>
</svg>
