<svg width="25" height="24" viewBox="0 0 25 24" fill="none" xmlns="http://www.w3.org/2000/svg">
<path d="M3.33398 11H6.33398C6.86442 11 7.37313 11.2107 7.7482 11.5858C8.12327 11.9609 8.33398 12.4696 8.33398 13V16C8.33398 16.5304 8.12327 17.0391 7.7482 17.4142C7.37313 17.7893 6.86442 18 6.33398 18H5.33398C4.80355 18 4.29484 17.7893 3.91977 17.4142C3.5447 17.0391 3.33398 16.5304 3.33398 16V11ZM3.33398 11C3.33398 9.8181 3.56678 8.64778 4.01907 7.55585C4.47136 6.46392 5.1343 5.47177 5.97002 4.63604C6.80575 3.80031 7.7979 3.13738 8.88983 2.68508C9.98176 2.23279 11.1521 2 12.334 2C13.5159 2 14.6862 2.23279 15.7781 2.68508C16.8701 3.13738 17.8622 3.80031 18.6979 4.63604C19.5337 5.47177 20.1966 6.46392 20.6489 7.55585C21.1012 8.64778 21.334 9.8181 21.334 11M21.334 11V16M21.334 11H18.334C17.8036 11 17.2948 11.2107 16.9198 11.5858C16.5447 11.9609 16.334 12.4696 16.334 13V16C16.334 16.5304 16.5447 17.0391 16.9198 17.4142C17.2948 17.7893 17.8036 18 18.334 18H19.334C19.8644 18 20.3731 17.7893 20.7482 17.4142C21.1233 17.0391 21.334 16.5304 21.334 16M21.334 16V18C21.334 19.0609 20.9126 20.0783 20.1624 20.8284C19.4123 21.5786 18.3949 22 17.334 22H12.334" stroke="white" stroke-width="2" stroke-linecap="round" stroke-linejoin="round"/>
</svg>
