<svg width="43" height="32" viewBox="0 0 43 32" fill="none" xmlns="http://www.w3.org/2000/svg">
<path d="M19.467 0L10.1032 14.9091C12.4031 15.0707 14.2923 15.9596 15.7708 17.5758C17.3314 19.1919 18.1117 21.1717 18.1117 23.5152C18.1117 26.0202 17.2082 28.0808 15.4011 29.697C13.6762 31.2323 11.5817 32 9.11748 32C6.57115 32 4.39446 31.2323 2.58739 29.697C0.862464 28.0808 0 25.899 0 23.1515C0 20.6465 0.903534 17.8182 2.7106 14.6667C4.59981 11.5151 7.68004 7.0303 11.9513 1.21212L12.8138 0H19.467ZM43 0L33.6361 14.9091C35.936 15.0707 37.8252 15.9596 39.3037 17.5758C40.8644 19.1919 41.6447 21.1717 41.6447 23.5152C41.6447 26.0202 40.7412 28.0808 38.9341 29.697C37.2092 31.2323 35.1557 32 32.7736 32C30.2273 32 28.0506 31.2323 26.2436 29.697C24.4365 28.0808 23.5329 25.899 23.5329 23.1515C23.5329 20.6465 24.4776 17.8182 26.3668 14.6667C28.256 11.5151 31.2951 7.0303 35.4842 1.21212L36.3467 0H43Z" fill="white"/>
<path d="M19.467 0L10.1032 14.9091C12.4031 15.0707 14.2923 15.9596 15.7708 17.5758C17.3314 19.1919 18.1117 21.1717 18.1117 23.5152C18.1117 26.0202 17.2082 28.0808 15.4011 29.697C13.6762 31.2323 11.5817 32 9.11748 32C6.57115 32 4.39446 31.2323 2.58739 29.697C0.862464 28.0808 0 25.899 0 23.1515C0 20.6465 0.903534 17.8182 2.7106 14.6667C4.59981 11.5151 7.68004 7.0303 11.9513 1.21212L12.8138 0H19.467ZM43 0L33.6361 14.9091C35.936 15.0707 37.8252 15.9596 39.3037 17.5758C40.8644 19.1919 41.6447 21.1717 41.6447 23.5152C41.6447 26.0202 40.7412 28.0808 38.9341 29.697C37.2092 31.2323 35.1557 32 32.7736 32C30.2273 32 28.0506 31.2323 26.2436 29.697C24.4365 28.0808 23.5329 25.899 23.5329 23.1515C23.5329 20.6465 24.4776 17.8182 26.3668 14.6667C28.256 11.5151 31.2951 7.0303 35.4842 1.21212L36.3467 0H43Z" fill="black" fill-opacity="0.04"/>
</svg>
