<svg width="25" height="24" viewBox="0 0 25 24" fill="none" xmlns="http://www.w3.org/2000/svg">
<path d="M10.968 21H5.66797C5.13754 21 4.62883 20.7893 4.25376 20.4142C3.87868 20.0391 3.66797 19.5304 3.66797 19V5C3.66797 4.46957 3.87868 3.96086 4.25376 3.58579C4.62883 3.21071 5.13754 3 5.66797 3H19.668C20.1984 3 20.7071 3.21071 21.0822 3.58579C21.4573 3.96086 21.668 4.46957 21.668 5V15L18.568 11.9C18.1917 11.5312 17.685 11.3258 17.1581 11.3284C16.6312 11.331 16.1266 11.5415 15.754 11.914L6.66797 21M14.668 19.5L17.668 16.5M17.668 16.5L20.668 19.5M17.668 16.5V22M11.668 9C11.668 10.1046 10.7725 11 9.66797 11C8.5634 11 7.66797 10.1046 7.66797 9C7.66797 7.89543 8.5634 7 9.66797 7C10.7725 7 11.668 7.89543 11.668 9Z" stroke="white" stroke-width="2" stroke-linecap="round" stroke-linejoin="round"/>
</svg>
