<svg width="178" height="32" viewBox="0 0 178 32" fill="none" xmlns="http://www.w3.org/2000/svg">
<path d="M172.361 10.4529C172.361 8.68562 173.794 7.25293 175.561 7.25293H176.975V26.6283H172.361V10.4529Z" fill="#212529"/>
<path d="M146.263 16.9489C146.263 15.5304 146.508 14.1998 146.998 12.9571C147.487 11.7018 148.177 10.6097 149.069 9.68079C149.973 8.73933 151.058 7.99871 152.326 7.45894C153.594 6.91916 155 6.64928 156.544 6.64928C157.937 6.64928 159.174 6.8815 160.253 7.34596C161.333 7.81042 162.268 8.4004 163.059 9.11591V3.29668C163.059 1.52937 164.492 0.0966797 166.259 0.0966797H167.634V26.6272H163.718L163.436 24.3676C163.046 24.7693 162.607 25.1459 162.117 25.4974C161.64 25.8363 161.113 26.1376 160.536 26.4012C159.958 26.6523 159.343 26.8531 158.691 27.0037C158.038 27.1544 157.347 27.2297 156.619 27.2297C155.075 27.2297 153.663 26.9598 152.383 26.42C151.115 25.8803 150.029 25.1459 149.125 24.217C148.221 23.2881 147.518 22.2023 147.016 20.9595C146.514 19.7043 146.263 18.3674 146.263 16.9489ZM150.839 16.9301C150.839 17.859 151.002 18.7126 151.328 19.4909C151.655 20.2691 152.1 20.9407 152.665 21.5056C153.23 22.0579 153.889 22.491 154.642 22.8048C155.395 23.1061 156.205 23.2567 157.071 23.2567C157.925 23.2567 158.728 23.1061 159.481 22.8048C160.235 22.491 160.887 22.0579 161.44 21.5056C162.004 20.9407 162.45 20.2754 162.776 19.5097C163.103 18.7314 163.266 17.8715 163.266 16.9301C163.266 16.0137 163.103 15.1727 162.776 14.4069C162.45 13.6287 162.004 12.9634 161.44 12.411C160.875 11.8587 160.216 11.4256 159.463 11.1118C158.709 10.798 157.9 10.6411 157.034 10.6411C156.167 10.6411 155.358 10.798 154.605 11.1118C153.851 11.4131 153.192 11.8462 152.627 12.411C152.075 12.9634 151.636 13.6287 151.309 14.4069C150.996 15.1727 150.839 16.0137 150.839 16.9301Z" fill="#212529"/>
<path d="M122.686 16.9507C122.686 15.5322 122.95 14.2016 123.477 12.9589C124.004 11.7036 124.738 10.6115 125.68 9.68261C126.634 8.7537 127.764 8.01936 129.069 7.47958C130.375 6.93981 131.799 6.66992 133.343 6.66992C134.9 6.66992 136.331 6.93981 137.636 7.47958C138.955 8.01936 140.084 8.7537 141.026 9.68261C141.98 10.6115 142.72 11.7036 143.248 12.9589C143.787 14.2016 144.057 15.5322 144.057 16.9507C144.057 17.2645 144.045 17.5156 144.02 17.7039C143.995 17.8922 143.969 18.0742 143.944 18.2499H127.186C127.337 19.0408 127.607 19.7563 127.996 20.3965C128.398 21.0367 128.875 21.5827 129.427 22.0346C129.992 22.474 130.613 22.8192 131.291 23.0702C131.969 23.3087 132.666 23.428 133.381 23.428C134.511 23.428 135.509 23.1769 136.375 22.6748C137.241 22.1727 137.9 21.5137 138.352 20.6978H143.304C142.99 21.5513 142.532 22.3736 141.93 23.1644C141.327 23.9427 140.599 24.6331 139.745 25.2356C138.904 25.8381 137.944 26.3152 136.864 26.6666C135.798 27.0307 134.624 27.2127 133.343 27.2127C131.799 27.2127 130.375 26.9428 129.069 26.403C127.764 25.8633 126.634 25.1289 125.68 24.2C124.738 23.2711 124.004 22.1853 123.477 20.9425C122.95 19.6998 122.686 18.3692 122.686 16.9507ZM133.381 10.3416C132.603 10.3416 131.881 10.4609 131.216 10.6994C130.563 10.9253 129.973 11.2454 129.446 11.6597C128.931 12.0739 128.492 12.5698 128.128 13.1472C127.764 13.7121 127.494 14.3334 127.318 15.0113H139.237C139.061 14.3334 138.798 13.7121 138.446 13.1472C138.095 12.5698 137.668 12.0739 137.166 11.6597C136.664 11.2454 136.092 10.9253 135.452 10.6994C134.825 10.4609 134.134 10.3416 133.381 10.3416Z" fill="#212529"/>
<path d="M119.786 26.629H115.191V16.1975C115.191 14.277 114.846 12.871 114.156 11.9798C113.465 11.0885 112.486 10.6429 111.218 10.6429C110.49 10.6429 109.825 10.7684 109.223 11.0195C108.62 11.258 108.093 11.6032 107.641 12.0551C107.202 12.507 106.856 13.0656 106.605 13.7309C106.354 14.3837 106.216 15.1243 106.191 15.9528V26.629H101.578V16.1975C101.578 14.277 101.233 12.871 100.542 11.9798C99.8519 11.0885 98.8727 10.6429 97.6049 10.6429C96.8643 10.6429 96.1801 10.7684 95.5525 11.0195C94.9374 11.2705 94.4102 11.6409 93.9708 12.1304C93.5315 12.6074 93.1863 13.1974 92.9352 13.9004C92.6967 14.5908 92.5775 15.3753 92.5775 16.254V26.629H88.002V7.25363H89.913C90.9646 7.25363 91.865 8.00725 92.0503 9.04241C92.4143 8.71604 92.816 8.40849 93.2553 8.11978C93.7072 7.83106 94.1968 7.58 94.724 7.36661C95.2512 7.15321 95.8098 6.98374 96.3998 6.85821C97.0024 6.73269 97.63 6.66992 98.2828 6.66992C99.6385 6.66992 100.837 6.92726 101.879 7.44192C102.934 7.95659 103.806 8.68466 104.496 9.62612C104.873 9.22443 105.306 8.84784 105.796 8.49636C106.298 8.13233 106.85 7.81851 107.453 7.5549C108.055 7.27874 108.714 7.06534 109.43 6.9147C110.145 6.75152 110.917 6.66992 111.746 6.66992C113.026 6.66992 114.162 6.88332 115.154 7.31012C116.158 7.72436 116.999 8.33318 117.677 9.13656C118.367 9.92739 118.888 10.9065 119.24 12.0739C119.604 13.2413 119.786 14.572 119.786 16.0657V26.629Z" fill="#212529"/>
<path d="M62.0283 16.9507C62.0283 15.5322 62.2731 14.2016 62.7627 12.9589C63.2648 11.7036 63.9677 10.6115 64.8715 9.68261C65.7879 8.7537 66.88 8.01936 68.1478 7.47958C69.4282 6.93981 70.8467 6.66992 72.4033 6.66992C73.1313 6.66992 73.8217 6.74524 74.4745 6.89587C75.1398 7.03396 75.7612 7.22852 76.3386 7.47958C76.916 7.71809 77.4432 8.0068 77.9202 8.34573C78.4098 8.6721 78.8429 9.01731 79.2195 9.38134C79.37 8.16614 80.4026 7.25363 81.6271 7.25363H83.3996V26.629H79.4831L79.2195 24.5013C78.8303 24.8779 78.391 25.2293 77.9014 25.5557C77.4119 25.8821 76.8784 26.1708 76.3009 26.4219C75.7361 26.6604 75.121 26.8487 74.4557 26.9867C73.8029 27.1374 73.1125 27.2127 72.3844 27.2127C70.8404 27.2127 69.4282 26.9491 68.1478 26.4219C66.88 25.8821 65.7942 25.1477 64.8904 24.2188C63.9866 23.2899 63.2836 22.2041 62.7815 20.9614C62.2794 19.7061 62.0283 18.3692 62.0283 16.9507ZM66.6038 16.9319C66.6038 17.8608 66.767 18.7144 67.0934 19.4927C67.4198 20.271 67.8654 20.9425 68.4303 21.5074C68.9952 22.0597 69.6542 22.4928 70.4074 22.8066C71.1605 23.1079 71.9702 23.2585 72.8363 23.2585C73.6899 23.2585 74.4933 23.1079 75.2465 22.8066C75.9997 22.4928 76.6524 22.0597 77.2047 21.5074C77.7696 20.9425 78.2152 20.2772 78.5416 19.5115C78.868 18.7332 79.0312 17.8734 79.0312 16.9319C79.0312 16.0155 78.868 15.1745 78.5416 14.4088C78.2152 13.6305 77.7696 12.9652 77.2047 12.4129C76.6399 11.8605 75.9808 11.4275 75.2277 11.1136C74.4745 10.7998 73.6648 10.6429 72.7987 10.6429C71.9325 10.6429 71.1229 10.7998 70.3697 11.1136C69.6165 11.4149 68.9575 11.848 68.3926 12.4129C67.8403 12.9652 67.4009 13.6305 67.0746 14.4088C66.7608 15.1745 66.6038 16.0155 66.6038 16.9319Z" fill="#212529"/>
<path d="M61.6686 7.25293L53.4214 26.6283H49.2789L41.0693 7.25293H43.8058C45.1106 7.25293 46.2848 8.04514 46.7732 9.25506L51.3313 20.5464H51.369L55.9271 9.25506C56.4155 8.04513 57.5896 7.25293 58.8944 7.25293H61.6686Z" fill="#212529"/>
<rect x="172.345" y="-0.00292969" width="5.33333" height="5.33333" rx="2.66667" fill="#FF004D"/>
<path d="M32.0034 26.4775L31.2862 26.4775C28.6352 26.4775 26.4862 24.3285 26.4862 21.6775L26.4862 -0.00517321L32.0034 -0.00517273L32.0034 26.4775Z" fill="#A50032"/>
<path d="M10.319 5.5127C7.66807 5.5127 5.51904 3.36366 5.51904 0.712695L5.51904 -0.00453901L32.0018 -0.00453554L32.0018 5.5127L10.319 5.5127Z" fill="#FF004D"/>
<path d="M27.2183 5.51436C27.2823 5.51217 27.3489 5.51211 27.4178 5.51436H32.0051V12.2213C32.0051 6.9455 29.0649 5.5682 27.4178 5.51436H27.2183Z" fill="#FF004D"/>
<path d="M-0.00390625 5.5166L0.713326 5.5166C3.36429 5.5166 5.51333 7.66564 5.51333 10.3166L5.51332 31.9993L-0.00391088 31.9993L-0.00390625 5.5166Z" fill="#A50032"/>
<path d="M21.6805 26.4814C24.3314 26.4814 26.4805 28.6305 26.4805 31.2814L26.4805 31.9987L-0.00224425 31.9987L-0.00224304 26.4814L21.6805 26.4814Z" fill="#FF004D"/>
<path d="M4.78125 26.4798C4.71721 26.482 4.65059 26.482 4.58172 26.4798L-0.00561571 26.4798L-0.00561512 19.7728C-0.00561559 25.0486 2.93459 26.4259 4.58172 26.4798L4.78125 26.4798Z" fill="#FF004D"/>
<rect x="13.2422" y="9.375" width="8.82757" height="8.82757" rx="4.41378" fill="url(#paint0_radial_5695_3341)"/>
<defs>
<radialGradient id="paint0_radial_5695_3341" cx="0" cy="0" r="1" gradientUnits="userSpaceOnUse" gradientTransform="translate(20.2682 11.729) rotate(143.842) scale(8.58733 17.5795)">
<stop stop-color="#FF004D"/>
<stop offset="1" stop-color="#99002E"/>
</radialGradient>
</defs>
</svg>
