<svg width="178" height="32" viewBox="0 0 178 32" fill="none" xmlns="http://www.w3.org/2000/svg">
<path d="M172.359 10.452C172.359 8.68464 173.792 7.25195 175.559 7.25195H176.973V26.6273H172.359V10.452Z" fill="white"/>
<path d="M146.262 16.9479C146.262 15.5295 146.506 14.1988 146.996 12.9561C147.486 11.7008 148.176 10.6087 149.067 9.67982C149.971 8.73835 151.057 7.99773 152.325 7.45796C153.593 6.91819 154.999 6.6483 156.543 6.6483C157.936 6.6483 159.172 6.88053 160.252 7.34498C161.331 7.80944 162.267 8.39942 163.057 9.11494V3.2957C163.057 1.52839 164.49 0.0957031 166.257 0.0957031H167.633V26.6262H163.716L163.434 24.3667C163.045 24.7684 162.606 25.1449 162.116 25.4964C161.639 25.8354 161.112 26.1366 160.534 26.4002C159.957 26.6513 159.342 26.8521 158.689 27.0028C158.036 27.1534 157.346 27.2287 156.618 27.2287C155.074 27.2287 153.662 26.9588 152.381 26.4191C151.113 25.8793 150.028 25.1449 149.124 24.216C148.22 23.2871 147.517 22.2013 147.015 20.9586C146.513 19.7033 146.262 18.3664 146.262 16.9479ZM150.837 16.9291C150.837 17.858 151 18.7116 151.327 19.4899C151.653 20.2682 152.099 20.9397 152.664 21.5046C153.229 22.0569 153.888 22.49 154.641 22.8038C155.394 23.1051 156.204 23.2557 157.07 23.2557C157.923 23.2557 158.727 23.1051 159.48 22.8038C160.233 22.49 160.886 22.0569 161.438 21.5046C162.003 20.9397 162.449 20.2744 162.775 19.5087C163.101 18.7304 163.265 17.8706 163.265 16.9291C163.265 16.0127 163.101 15.1717 162.775 14.406C162.449 13.6277 162.003 12.9624 161.438 12.4101C160.873 11.8577 160.214 11.4247 159.461 11.1108C158.708 10.797 157.898 10.6401 157.032 10.6401C156.166 10.6401 155.356 10.797 154.603 11.1108C153.85 11.4121 153.191 11.8452 152.626 12.4101C152.074 12.9624 151.634 13.6277 151.308 14.406C150.994 15.1717 150.837 16.0127 150.837 16.9291Z" fill="white"/>
<path d="M122.686 16.9488C122.686 15.5303 122.949 14.1997 123.476 12.957C124.004 11.7017 124.738 10.6096 125.679 9.68066C126.633 8.75174 127.763 8.0174 129.069 7.47763C130.374 6.93786 131.799 6.66797 133.343 6.66797C134.899 6.66797 136.331 6.93786 137.636 7.47763C138.954 8.0174 140.084 8.75174 141.025 9.68066C141.979 10.6096 142.72 11.7017 143.247 12.957C143.787 14.1997 144.057 15.5303 144.057 16.9488C144.057 17.2626 144.044 17.5136 144.019 17.7019C143.994 17.8902 143.969 18.0722 143.944 18.248H127.186C127.336 19.0388 127.606 19.7543 127.995 20.3945C128.397 21.0347 128.874 21.5808 129.426 22.0327C129.991 22.472 130.613 22.8172 131.291 23.0683C131.968 23.3068 132.665 23.426 133.381 23.426C134.51 23.426 135.508 23.175 136.374 22.6729C137.241 22.1708 137.9 21.5117 138.352 20.6958H143.304C142.99 21.5494 142.532 22.3716 141.929 23.1624C141.327 23.9407 140.598 24.6311 139.745 25.2337C138.904 25.8362 137.944 26.3132 136.864 26.6647C135.797 27.0287 134.623 27.2107 133.343 27.2107C131.799 27.2107 130.374 26.9408 129.069 26.4011C127.763 25.8613 126.633 25.127 125.679 24.198C124.738 23.2691 124.004 22.1833 123.476 20.9406C122.949 19.6978 122.686 18.3672 122.686 16.9488ZM133.381 10.3397C132.602 10.3397 131.881 10.4589 131.215 10.6974C130.562 10.9234 129.972 11.2435 129.445 11.6577C128.931 12.072 128.491 12.5678 128.127 13.1452C127.763 13.7101 127.493 14.3315 127.318 15.0093H139.237C139.061 14.3315 138.797 13.7101 138.446 13.1452C138.094 12.5678 137.667 12.072 137.165 11.6577C136.663 11.2435 136.092 10.9234 135.452 10.6974C134.824 10.4589 134.134 10.3397 133.381 10.3397Z" fill="white"/>
<path d="M119.786 26.627H115.191V16.1956C115.191 14.275 114.846 12.8691 114.156 11.9778C113.465 11.0866 112.486 10.641 111.218 10.641C110.49 10.641 109.825 10.7665 109.223 11.0175C108.62 11.256 108.093 11.6012 107.641 12.0531C107.202 12.5051 106.856 13.0637 106.605 13.729C106.354 14.3817 106.216 15.1223 106.191 15.9508V26.627H101.578V16.1956C101.578 14.275 101.233 12.8691 100.542 11.9778C99.8519 11.0866 98.8727 10.641 97.6049 10.641C96.8643 10.641 96.1801 10.7665 95.5525 11.0175C94.9374 11.2686 94.4102 11.6389 93.9708 12.1285C93.5315 12.6055 93.1863 13.1955 92.9352 13.8984C92.6967 14.5888 92.5775 15.3734 92.5775 16.2521V26.627H88.002V7.25168H89.913C90.9646 7.25168 91.865 8.00529 92.0503 9.04046C92.4143 8.71409 92.816 8.40654 93.2553 8.11783C93.7072 7.82911 94.1968 7.57805 94.724 7.36465C95.2512 7.15125 95.8098 6.98179 96.3998 6.85626C97.0024 6.73073 97.63 6.66797 98.2828 6.66797C99.6385 6.66797 100.837 6.9253 101.879 7.43997C102.934 7.95464 103.806 8.6827 104.496 9.62417C104.873 9.22248 105.306 8.84589 105.796 8.49441C106.298 8.13038 106.85 7.81656 107.453 7.55295C108.055 7.27678 108.714 7.06338 109.43 6.91275C110.145 6.74956 110.917 6.66797 111.746 6.66797C113.026 6.66797 114.162 6.88137 115.154 7.30817C116.158 7.72241 116.999 8.33122 117.677 9.13461C118.367 9.92544 118.888 10.9046 119.24 12.072C119.604 13.2394 119.786 14.57 119.786 16.0638V26.627Z" fill="white"/>
<path d="M62.0273 16.9488C62.0273 15.5303 62.2721 14.1997 62.7617 12.957C63.2638 11.7017 63.9668 10.6096 64.8706 9.68066C65.7869 8.75174 66.879 8.0174 68.1469 7.47763C69.4273 6.93786 70.8457 6.66797 72.4023 6.66797C73.1304 6.66797 73.8208 6.74329 74.4735 6.89392C75.1388 7.032 75.7602 7.22657 76.3376 7.47763C76.915 7.71613 77.4423 8.00485 77.9193 8.34378C78.4088 8.67015 78.8419 9.01535 79.2185 9.37939C79.3691 8.16419 80.4016 7.25168 81.6261 7.25168H83.3986V26.627H79.4821L79.2185 24.4993C78.8294 24.8759 78.39 25.2274 77.9004 25.5538C77.4109 25.8801 76.8774 26.1688 76.3 26.4199C75.7351 26.6584 75.12 26.8467 74.4547 26.9848C73.8019 27.1354 73.1115 27.2107 72.3835 27.2107C70.8395 27.2107 69.4273 26.9471 68.1469 26.4199C66.879 25.8801 65.7932 25.1458 64.8894 24.2169C63.9856 23.288 63.2826 22.2021 62.7805 20.9594C62.2784 19.7041 62.0273 18.3672 62.0273 16.9488ZM66.6029 16.9299C66.6029 17.8588 66.7661 18.7124 67.0924 19.4907C67.4188 20.269 67.8644 20.9406 68.4293 21.5055C68.9942 22.0578 69.6532 22.4909 70.4064 22.8047C71.1596 23.1059 71.9692 23.2566 72.8354 23.2566C73.689 23.2566 74.4923 23.1059 75.2455 22.8047C75.9987 22.4909 76.6514 22.0578 77.2038 21.5055C77.7686 20.9406 78.2143 20.2753 78.5406 19.5096C78.867 18.7313 79.0302 17.8714 79.0302 16.9299C79.0302 16.0136 78.867 15.1725 78.5406 14.4068C78.2143 13.6285 77.7686 12.9632 77.2038 12.4109C76.6389 11.8586 75.9799 11.4255 75.2267 11.1117C74.4735 10.7979 73.6639 10.641 72.7977 10.641C71.9316 10.641 71.1219 10.7979 70.3687 11.1117C69.6156 11.413 68.9565 11.846 68.3916 12.4109C67.8393 12.9632 67.4 13.6285 67.0736 14.4068C66.7598 15.1725 66.6029 16.0136 66.6029 16.9299Z" fill="white"/>
<path d="M61.6676 7.25195L53.4204 26.6273H49.2779L41.0684 7.25195H43.8049C45.1097 7.25195 46.2838 8.04416 46.7722 9.25409L51.3303 20.5454H51.368L55.9261 9.25409C56.4145 8.04416 57.5887 7.25195 58.8935 7.25195H61.6676Z" fill="white"/>
<rect x="172.344" y="-0.00390625" width="5.33333" height="5.33333" rx="2.66667" fill="#FF004D"/>
<path d="M32.002 26.4785L31.2847 26.4785C28.6338 26.4785 26.4847 24.3295 26.4847 21.6785L26.4847 -0.00419665L32.002 -0.00419617L32.002 26.4785Z" fill="#A50032"/>
<path d="M10.3176 5.51367C7.66661 5.51367 5.51758 3.36464 5.51758 0.713671L5.51758 -0.00356245L32.0003 -0.00355898L32.0003 5.51368L10.3176 5.51367Z" fill="#FF004D"/>
<path d="M27.2168 5.51534C27.2808 5.51315 27.3475 5.51309 27.4163 5.51534H32.0037V12.2223C32.0037 6.94648 29.0635 5.56918 27.4163 5.51534H27.2168Z" fill="#FF004D"/>
<path d="M-0.00390625 5.51758L0.713326 5.51758C3.36429 5.51758 5.51333 7.66661 5.51333 10.3176L5.51332 32.0003L-0.00391088 32.0003L-0.00390625 5.51758Z" fill="#A50032"/>
<path d="M21.6805 26.4824C24.3314 26.4824 26.4805 28.6315 26.4805 31.2824L26.4805 31.9997L-0.00224425 31.9997L-0.00224304 26.4824L21.6805 26.4824Z" fill="#FF004D"/>
<path d="M4.78125 26.4808C4.71721 26.4829 4.65059 26.483 4.58172 26.4808L-0.00561571 26.4808L-0.00561512 19.7738C-0.00561559 25.0496 2.93459 26.4269 4.58172 26.4808L4.78125 26.4808Z" fill="#FF004D"/>
<rect x="13.2422" y="9.37695" width="8.82757" height="8.82757" rx="4.41378" fill="url(#paint0_radial_5855_15016)"/>
<defs>
<radialGradient id="paint0_radial_5855_15016" cx="0" cy="0" r="1" gradientUnits="userSpaceOnUse" gradientTransform="translate(20.2682 11.731) rotate(143.842) scale(8.58733 17.5795)">
<stop stop-color="#FF004D"/>
<stop offset="1" stop-color="#99002E"/>
</radialGradient>
</defs>
</svg>
