<svg width="114" height="40" viewBox="0 0 114 40" fill="none" xmlns="http://www.w3.org/2000/svg">
<g clip-path="url(#clip0_5548_16370)">
<path d="M113.07 17.0653C112.625 16.1657 111.987 15.4461 111.17 14.9064C109.762 14.0068 108.261 13.3338 106.674 12.9007V12.8207C107.83 12.5009 108.653 12.2077 109.151 11.9412C111.356 10.7418 112.459 9.00264 112.459 6.71712C112.459 5.37779 112.021 4.21171 111.131 3.20554C110.314 2.25935 109.244 1.57969 107.923 1.18655C107.63 1.05329 107.338 0.966665 107.059 0.920022L106.382 0.800082C106.275 0.773428 106.189 0.746775 106.109 0.720122H105.731L105.133 0.706795C104.356 0.600182 102.676 0.546875 100.099 0.546875H90.6074V1.37313C92.7594 1.37313 93.8353 2.49257 93.8353 4.73145V23.2488C93.8353 25.4877 92.7594 26.6005 90.6074 26.6005V27.4268H104.456C105.757 27.4268 106.86 27.2602 107.783 26.907C108.979 26.4606 110.207 25.7476 111.476 24.7881C112.924 23.682 113.648 21.9895 113.648 19.7173C113.648 18.7178 113.455 17.8316 113.07 17.0586V17.0653ZM100.099 3.632C100.099 2.91236 100.245 2.40594 100.524 2.12608C100.803 1.84622 101.301 1.70629 102.018 1.70629C103.439 1.70629 104.442 1.95284 105.033 2.43926C105.698 2.97899 106.03 3.94517 106.03 5.33115V8.48957C106.03 11.3082 104.615 12.7141 101.786 12.7141H100.092V3.632H100.099ZM105.85 25.1945C105.047 25.9275 103.752 26.294 101.985 26.294C100.942 26.294 100.338 25.8675 100.178 25.0013C100.125 24.7348 100.099 24.0684 100.099 23.0156V14.0934H102.576C104.456 14.0934 105.751 14.873 106.441 16.4389C106.906 17.4917 107.132 19.1309 107.132 21.3565C107.132 23.1289 106.707 24.4083 105.85 25.1945Z" fill="#2E3192"/>
<path d="M78.646 14.5599H69.2079V23.2488C69.2079 25.4877 70.2839 26.6005 72.4359 26.6005V27.4268H59.7168V26.6005C61.8687 26.6005 62.9447 25.4811 62.9447 23.2488V4.73145C62.9447 2.49257 61.8687 1.37313 59.7168 1.37313V0.546875H72.4359V1.37313C70.2839 1.37313 69.2079 2.49257 69.2079 4.73145V12.6342H78.646V4.73145C78.646 2.49257 77.57 1.37313 75.418 1.37313V0.546875H88.1305V1.37313C85.9785 1.37313 84.9025 2.49257 84.9025 4.73145V23.2488C84.9025 25.4877 85.9785 26.6005 88.1305 26.6005V27.4268H75.418V26.6005C77.57 26.6005 78.646 25.4811 78.646 23.2488V14.5599Z" fill="#2E3192"/>
<path d="M55.6249 0.0133267V8.68232H54.8412L53.5992 5.84374C53.0612 4.63768 52.2775 3.60486 51.2546 2.74529C50.1056 1.77911 48.7241 1.29935 47.1101 1.29935C45.5958 1.29935 44.46 1.82575 43.7095 2.87856C43.1848 3.61819 42.9258 4.37781 42.9258 5.17741C42.9258 6.21689 43.2313 7.1231 43.849 7.89605C44.6394 8.90221 46.0474 9.76178 48.0533 10.4814C50.9956 11.5342 53.2007 12.8469 54.6619 14.4328C56.0434 15.932 56.7341 17.6712 56.7341 19.6368C56.7341 22.6687 55.5585 24.9275 53.2206 26.4068C51.5668 27.4463 49.4481 27.966 46.8577 27.966C46.167 27.966 45.2969 27.8194 44.2475 27.5395C41.9627 26.9199 40.6078 26.6133 40.1761 26.6133C40.0034 26.6133 39.8506 26.7333 39.6979 26.9598L39.5783 27.3063L39.4256 27.966H38.4824V18.3641H39.3857L40.2093 21.1427C40.4285 21.8757 40.9 22.6953 41.624 23.6082C42.3214 24.4611 42.9989 25.1341 43.683 25.6072C44.7456 26.3535 45.8283 26.7266 46.9308 26.7266C50.5307 26.7266 52.324 25.2807 52.324 22.3888C52.324 20.9628 51.3476 19.6102 49.3883 18.3375C48.8104 17.971 47.223 17.1714 44.6261 15.9454C42.5738 14.9858 41.0594 13.7131 40.0698 12.1473C39.2396 10.8279 38.8212 9.4486 38.8212 8.02265C38.8212 5.54389 39.6647 3.53823 41.3583 2.00566C42.8262 0.672996 44.5065 0 46.3862 0C47.6614 0 48.8569 0.153257 49.9595 0.45977L53.5328 1.46593C53.7785 1.46593 54.0309 1.25937 54.3032 0.826253L54.7283 0H55.6249V0.0133267Z" fill="#2E3192"/>
<path d="M15.7344 28.0059H13.8747L14.1271 27.826C17.8665 25.2672 19.7992 23.1816 20.6095 21.4158C21.4065 19.6634 21.0944 18.2241 20.3505 16.9247C19.507 15.4588 17.9329 14.1928 16.3853 12.9534C14.8312 11.7074 13.3035 10.4813 12.5663 9.06868C11.9752 7.92925 12.035 6.65655 12.9781 5.17729C13.9013 3.73135 15.6747 2.08551 18.524 0.159806C18.5572 0.139816 18.6768 0.0665198 18.71 0.0398665H19.0686L18.8162 0.20645C18.8162 0.20645 18.6768 0.299736 18.6502 0.319726C16.1994 2.11883 14.8312 3.64473 14.2268 4.98406C13.6223 6.31672 13.7818 7.46948 14.3862 8.51562C15.2031 9.93491 16.8237 11.1743 18.4642 12.4337C19.2679 13.0467 20.0649 13.6664 20.7889 14.3127C21.5128 14.9591 22.1504 15.6387 22.6154 16.3717C23.4854 17.751 23.7378 19.3102 22.7814 21.2093C21.8383 23.0883 19.7062 25.3006 15.8009 27.9925L15.7477 28.0125L15.7344 28.0059ZM16.206 0.0398665H16.5381L16.2924 0.219776C13.8083 1.99889 12.2608 3.52479 11.4704 4.87078C10.6933 6.19678 10.6601 7.33621 11.1914 8.36237C11.9287 9.77499 13.4762 11.0144 15.0503 12.2737C15.8141 12.8868 16.5846 13.4998 17.2687 14.1528C17.9595 14.7991 18.5572 15.4855 18.9756 16.2118C19.7793 17.6111 20.0782 19.1703 19.1085 21.0893C18.1454 22.9817 15.9337 25.2206 11.7162 27.9859L11.663 28.0059H10.0623L10.328 27.826C14.0474 25.3205 16.1396 23.2616 17.1226 21.4958C18.0989 19.7567 17.986 18.3174 17.3152 17.038C16.93 16.3051 16.3588 15.6254 15.6946 14.9724C15.0304 14.3194 14.2799 13.693 13.5294 13.0667C12.7855 12.447 12.0416 11.8273 11.404 11.1876C10.7597 10.5479 10.2217 9.88161 9.88965 9.17529C9.33838 8.01587 9.3251 6.74318 10.255 5.24393C11.1715 3.76467 13.0113 2.06552 16.1794 0.0465298L16.206 0.0332031V0.0398665ZM21.194 0.0398665H31.5087V28.0059H17.9395L18.1786 27.826C21.6191 25.3339 23.4854 23.2816 24.2825 21.5224C25.0728 19.79 24.8138 18.3507 24.0101 17.078C23.5452 16.345 22.9076 15.6654 22.177 15.0057C21.4464 14.346 20.6295 13.7263 19.8192 13.1C18.1919 11.854 16.5979 10.6279 15.7809 9.21527C15.1101 8.05585 14.964 6.77649 15.7411 5.27058C16.5115 3.78466 18.1919 2.07885 21.1741 0.0531931L21.2007 0.0332031L21.194 0.0398665ZM0.0996271 0.0398665H14.0474L13.7818 0.219776C11.0785 2.05219 9.52435 3.60475 8.76719 4.9574C8.0233 6.29007 8.06316 7.44283 8.56129 8.48897C8.89338 9.19528 9.43137 9.85495 10.0756 10.5013C10.7265 11.1476 11.477 11.774 12.2342 12.407C12.9715 13.02 13.7087 13.6331 14.3662 14.2794C15.0238 14.9324 15.595 15.6121 15.9802 16.345C16.7108 17.7243 16.7971 19.2902 15.6415 21.1959C14.4991 23.075 12.1279 25.2939 7.93032 27.9925L7.87718 28.0125H0V0.0398665H0.0996271Z" fill="#F58220"/>
<path d="M0.930576 38.354V35.8419H0.326172V35.3422H0.930576V32.8301H2.83013C3.25521 32.8301 3.58066 32.8567 3.80648 32.91C4.11864 32.9833 4.39096 33.1166 4.61678 33.3032C4.90902 33.5497 5.12156 33.8629 5.26768 34.2494C5.4138 34.6292 5.48686 35.069 5.48686 35.562C5.48686 36.1218 5.40051 36.6082 5.22118 37.0146C5.04186 37.4211 4.82932 37.7143 4.58357 37.9009C4.33782 38.0874 4.05223 38.214 3.72678 38.294C3.54745 38.3407 3.28178 38.3606 2.92312 38.3606H0.930576V38.354ZM1.66118 37.701H2.83678C3.20208 37.701 3.48767 37.6677 3.69357 37.601C3.89946 37.5344 4.05887 37.4411 4.18506 37.3212C4.35775 37.1479 4.49059 36.9147 4.59021 36.6215C4.68984 36.3283 4.73633 35.9752 4.73633 35.5554C4.73633 35.1356 4.68984 34.7758 4.59021 34.5226C4.49723 34.2627 4.37103 34.0561 4.21163 33.9029C4.05887 33.7496 3.88618 33.643 3.69357 33.583C3.50096 33.5231 3.20872 33.4897 2.81685 33.4897H1.66118V35.3488H3.18215V35.8486H1.66118V37.7076V37.701Z" fill="black"/>
<path d="M6.15039 36.3549C6.15039 35.6153 6.35629 35.0622 6.76808 34.7091C7.11345 34.4159 7.53189 34.2626 8.02338 34.2626C8.57465 34.2626 9.01965 34.4425 9.36503 34.8024C9.7104 35.1622 9.88973 35.6619 9.88973 36.295C9.88973 36.808 9.81003 37.2145 9.65727 37.5077C9.5045 37.8009 9.27868 38.0341 8.98644 38.194C8.6942 38.3606 8.36875 38.4405 8.02338 38.4405C7.46547 38.4405 7.01383 38.2606 6.66845 37.9008C6.32308 37.541 6.15039 37.0213 6.15039 36.3483V36.3549ZM8.03002 33.2165L7.60495 33.8562H6.82785L7.63816 32.8034H8.36211L9.20562 33.8562H8.44181L8.03002 33.2165ZM6.84778 36.3549C6.84778 36.868 6.96069 37.2545 7.17987 37.5077C7.40569 37.7609 7.68465 37.8942 8.02338 37.8942C8.36211 37.8942 8.64107 37.7676 8.86025 37.5077C9.08607 37.2545 9.19234 36.8613 9.19234 36.3349C9.19234 35.8418 9.07943 35.4687 8.85361 35.2088C8.62779 34.949 8.34883 34.829 8.01674 34.829C7.68465 34.829 7.39905 34.9556 7.17323 35.2088C6.95405 35.462 6.84114 35.8485 6.84114 36.3549H6.84778ZM8.14958 31.4707H9.05286L8.18278 32.5302H7.63816L8.14293 31.4707H8.14958Z" fill="black"/>
<path d="M10.6875 33.6097V32.8301H11.365V33.6097H10.6875ZM10.6875 38.354V34.3493H11.365V38.354H10.6875Z" fill="black"/>
<path d="M16.0066 37.748L16.1062 38.3477C15.9136 38.3876 15.7475 38.4076 15.5948 38.4076C15.349 38.4076 15.1564 38.3677 15.0236 38.2944C14.8908 38.2144 14.7911 38.1145 14.738 37.9878C14.6849 37.8612 14.6583 37.5947 14.6583 37.1882V34.8827H14.1602V34.3563H14.6583V33.3635L15.3291 32.957V34.3563H16.0066V34.8827H15.3291V37.2216C15.3291 37.4148 15.3424 37.5414 15.3623 37.5947C15.3889 37.648 15.4221 37.6947 15.4819 37.728C15.535 37.7613 15.6147 37.7746 15.7143 37.7746C15.7874 37.7746 15.887 37.768 16.0132 37.748H16.0066Z" fill="black"/>
<path d="M19.2689 37.8602C19.0165 38.0734 18.7774 38.2267 18.5449 38.3133C18.3124 38.3999 18.0667 38.4466 17.801 38.4466C17.3627 38.4466 17.0239 38.34 16.7915 38.1267C16.559 37.9135 16.4395 37.6336 16.4395 37.3005C16.4395 37.1072 16.4859 36.9273 16.5723 36.7608C16.6586 36.6008 16.7782 36.4676 16.9243 36.3743C17.0704 36.2743 17.2298 36.201 17.4092 36.1544C17.542 36.1211 17.7412 36.0811 18.0136 36.0544C18.5582 35.9878 18.9633 35.9078 19.2224 35.8212C19.2224 35.7279 19.2224 35.668 19.2224 35.6413C19.2224 35.3615 19.156 35.1682 19.0298 35.0549C18.8571 34.9017 18.598 34.8284 18.2593 34.8284C17.9405 34.8284 17.708 34.8817 17.5553 34.995C17.4025 35.1082 17.2896 35.3015 17.2165 35.588L16.5524 35.5014C16.6121 35.2149 16.7118 34.9883 16.8512 34.8151C16.9907 34.6418 17.19 34.5085 17.449 34.4086C17.708 34.3153 18.0136 34.2687 18.3523 34.2687C18.691 34.2687 18.97 34.3086 19.1825 34.3886C19.3951 34.4686 19.5545 34.5685 19.6541 34.6951C19.7537 34.8151 19.8268 34.975 19.8666 35.1549C19.8866 35.2682 19.8998 35.4814 19.8998 35.7812V36.6875C19.8998 37.3205 19.9131 37.7136 19.9463 37.8869C19.9729 38.0534 20.0327 38.2134 20.119 38.3666H19.415C19.3419 38.2267 19.3021 38.0601 19.2821 37.8735L19.2689 37.8602ZM19.2091 36.3476C18.9633 36.4476 18.598 36.5342 18.1065 36.6008C17.8276 36.6408 17.635 36.6875 17.5154 36.7408C17.4025 36.7941 17.3095 36.8607 17.2498 36.9607C17.19 37.0606 17.1568 37.1672 17.1568 37.2805C17.1568 37.4604 17.2232 37.6137 17.3627 37.7336C17.5021 37.8535 17.7014 37.9135 17.9604 37.9135C18.2195 37.9135 18.4519 37.8535 18.6578 37.7403C18.8637 37.627 19.0098 37.4671 19.1028 37.2738C19.1759 37.1206 19.2091 36.894 19.2091 36.5942V36.3476ZM17.894 33.8555L18.3921 32.8027H19.2755L18.4519 33.8555H17.894Z" fill="black"/>
<path d="M23.5458 36.8871L24.21 36.9737C24.1369 37.4335 23.951 37.7933 23.6521 38.0532C23.3532 38.313 22.9879 38.4463 22.5495 38.4463C22.0049 38.4463 21.5666 38.2664 21.2345 37.9066C20.9024 37.5467 20.7363 37.0337 20.7363 36.3673C20.7363 35.9342 20.8094 35.5544 20.9489 35.2346C21.0883 34.9081 21.3075 34.6682 21.5998 34.5083C21.892 34.3417 22.2108 34.2617 22.5495 34.2617C22.9813 34.2617 23.3399 34.3683 23.6122 34.5882C23.8845 34.8081 24.0639 35.1213 24.1436 35.5278L23.486 35.6277C23.4263 35.3612 23.3134 35.1546 23.1539 35.0213C22.9945 34.8881 22.8019 34.8148 22.5761 34.8148C22.2374 34.8148 21.9584 34.9347 21.7459 35.1813C21.5333 35.4278 21.4271 35.8143 21.4271 36.3473C21.4271 36.8804 21.5267 37.2735 21.7326 37.5201C21.9385 37.7666 22.2042 37.8866 22.5363 37.8866C22.8019 37.8866 23.0211 37.8066 23.2004 37.64C23.3798 37.4801 23.4927 37.2269 23.5392 36.8871H23.5458Z" fill="black"/>
<path d="M28.407 37.748L28.5066 38.3477C28.314 38.3876 28.1479 38.4076 27.9952 38.4076C27.7494 38.4076 27.5568 38.3677 27.424 38.2944C27.2911 38.2144 27.1915 38.1145 27.1384 37.9878C27.0852 37.8612 27.0587 37.5947 27.0587 37.1882V34.8827H26.5605V34.3563H27.0587V33.3635L27.7295 32.957V34.3563H28.407V34.8827H27.7295V37.2216C27.7295 37.4148 27.7428 37.5414 27.7627 37.5947C27.7893 37.648 27.8225 37.6947 27.8823 37.728C27.9354 37.7613 28.0151 37.7746 28.1147 37.7746C28.1878 37.7746 28.2874 37.768 28.4136 37.748H28.407Z" fill="black"/>
<path d="M29.0723 33.6097V32.8301H29.7497V33.6097H29.0723ZM29.0723 38.354V34.3493H29.7497V38.354H29.0723Z" fill="black"/>
<path d="M30.7793 38.3538V34.3491H31.3903V34.9155C31.6826 34.4758 32.1077 34.2559 32.6589 34.2559C32.898 34.2559 33.1172 34.2958 33.3231 34.3891C33.5224 34.4757 33.6751 34.589 33.7748 34.729C33.8744 34.8689 33.9474 35.0355 33.9873 35.2287C34.0139 35.3553 34.0271 35.5752 34.0271 35.8884V38.3471H33.3497V35.9084C33.3497 35.6352 33.3231 35.4286 33.27 35.2887C33.2168 35.1487 33.1239 35.0421 32.991 34.9622C32.8582 34.8822 32.6988 34.8422 32.5195 34.8422C32.2339 34.8422 31.9815 34.9355 31.7756 35.1154C31.5697 35.2953 31.4634 35.6485 31.4634 36.1616V38.3471H30.7859L30.7793 38.3538Z" fill="black"/>
<path d="M39.7978 36.8871L40.4619 36.9737C40.3889 37.4335 40.2029 37.7933 39.904 38.0532C39.6052 38.313 39.2399 38.4463 38.8015 38.4463C38.2569 38.4463 37.8185 38.2664 37.4864 37.9066C37.1543 37.5467 36.9883 37.0337 36.9883 36.3673C36.9883 35.9342 37.0613 35.5544 37.2008 35.2346C37.3403 34.9081 37.5595 34.6682 37.8517 34.5083C38.144 34.3417 38.4628 34.2617 38.8015 34.2617C39.2332 34.2617 39.5919 34.3683 39.8642 34.5882C40.1431 34.8081 40.3158 35.1213 40.3955 35.5278L39.738 35.6277C39.6782 35.3612 39.5653 35.1546 39.4059 35.0213C39.2465 34.8881 39.0539 34.8148 38.8281 34.8148C38.4893 34.8148 38.2104 34.9347 37.9978 35.1813C37.7853 35.4278 37.679 35.8143 37.679 36.3473C37.679 36.8804 37.7787 37.2735 37.9846 37.5201C38.1904 37.7666 38.4561 37.8866 38.7882 37.8866C39.0539 37.8866 39.2731 37.8066 39.4524 37.64C39.6317 37.4801 39.7446 37.2269 39.7911 36.8871H39.7978Z" fill="black"/>
<path d="M43.6439 37.8602C43.3915 38.0734 43.1524 38.2267 42.9199 38.3133C42.6874 38.3999 42.4417 38.4466 42.176 38.4466C41.7377 38.4466 41.3989 38.34 41.1665 38.1267C40.934 37.9135 40.8145 37.6336 40.8145 37.3005C40.8145 37.1072 40.8609 36.9273 40.9473 36.7608C41.0336 36.6008 41.1532 36.4676 41.2993 36.3743C41.4454 36.2743 41.6048 36.201 41.7842 36.1544C41.917 36.1211 42.1162 36.0811 42.3886 36.0544C42.9332 35.9878 43.3383 35.9078 43.5974 35.8212C43.5974 35.7279 43.5974 35.668 43.5974 35.6413C43.5974 35.3615 43.531 35.1682 43.4048 35.0549C43.2321 34.9017 42.973 34.8284 42.6343 34.8284C42.3155 34.8284 42.083 34.8817 41.9303 34.995C41.7775 35.1082 41.6646 35.3015 41.5915 35.588L40.9274 35.5014C40.9871 35.2149 41.0868 34.9883 41.2262 34.8151C41.3657 34.6418 41.565 34.5085 41.824 34.4086C42.083 34.3153 42.3886 34.2687 42.7273 34.2687C43.066 34.2687 43.345 34.3086 43.5575 34.3886C43.7701 34.4686 43.9295 34.5685 44.0291 34.6951C44.1287 34.8151 44.2018 34.975 44.2416 35.1549C44.2616 35.2682 44.2748 35.4814 44.2748 35.7812V36.6875C44.2748 37.3205 44.2881 37.7136 44.3213 37.8869C44.3479 38.0534 44.4077 38.2134 44.494 38.3666H43.79C43.7169 38.2267 43.6771 38.0601 43.6571 37.8735L43.6439 37.8602ZM42.6609 33.2159L42.2358 33.8555H41.4654L42.2757 32.8027H42.9996L43.8431 33.8555H43.0793L42.6675 33.2159H42.6609ZM43.5907 36.3476C43.345 36.4476 42.9797 36.5342 42.4882 36.6008C42.2092 36.6408 42.0166 36.6875 41.8971 36.7408C41.7842 36.7941 41.6912 36.8607 41.6314 36.9607C41.5716 37.0606 41.5384 37.1672 41.5384 37.2805C41.5384 37.4604 41.6048 37.6137 41.7443 37.7336C41.8838 37.8535 42.083 37.9135 42.3421 37.9135C42.6011 37.9135 42.8336 37.8535 43.0395 37.7403C43.2454 37.627 43.3915 37.4671 43.4845 37.2738C43.5575 37.1206 43.5907 36.894 43.5907 36.5942V36.3476ZM42.2557 39.5793V38.8064H43.0262V39.5793H42.2557Z" fill="black"/>
<path d="M45.2903 39.8943L45.2172 39.2546C45.3634 39.2946 45.4962 39.3146 45.6025 39.3146C45.7552 39.3146 45.8748 39.2879 45.9611 39.2413C46.0541 39.188 46.1272 39.1214 46.1803 39.0281C46.2201 38.9614 46.2932 38.7949 46.3862 38.5217C46.3995 38.4817 46.4194 38.4284 46.446 38.3551L44.9316 34.3438H45.6622L46.4925 36.6626C46.5987 36.9558 46.6984 37.269 46.7847 37.5888C46.8644 37.2756 46.9574 36.9758 47.0637 36.6759L47.9138 34.3438H48.5913L47.0703 38.415C46.9043 38.8548 46.7781 39.1613 46.6917 39.3213C46.5722 39.5478 46.4327 39.7077 46.2799 39.8143C46.1272 39.9143 45.9412 39.9676 45.722 39.9676C45.5892 39.9676 45.4497 39.9409 45.2837 39.881L45.2903 39.8943Z" fill="black"/>
<path d="M48.7711 38.355V37.582H49.5415V38.355C49.5415 38.6415 49.4884 38.8681 49.3888 39.0413C49.2892 39.2145 49.1298 39.3478 48.9106 39.4478L48.7246 39.1546C48.8641 39.0946 48.9704 39.0013 49.0368 38.8747C49.1032 38.7548 49.143 38.5749 49.1497 38.3483H48.7645L48.7711 38.355Z" fill="black"/>
<path d="M52.743 38.6865L53.4005 38.7865C53.4271 38.993 53.5068 39.1396 53.633 39.2329C53.799 39.3595 54.0315 39.4195 54.3171 39.4195C54.6293 39.4195 54.875 39.3595 55.0411 39.2329C55.2138 39.1063 55.3267 38.9331 55.3864 38.7065C55.4196 38.5666 55.4396 38.2801 55.4329 37.8336C55.134 38.1801 54.7687 38.36 54.3304 38.36C53.7791 38.36 53.3607 38.1601 53.0552 37.767C52.7563 37.3738 52.6035 36.8941 52.6035 36.341C52.6035 35.9612 52.6699 35.6081 52.8094 35.2882C52.9489 34.9617 53.1481 34.7152 53.4072 34.5419C53.6662 34.362 53.9784 34.2754 54.3304 34.2754C54.802 34.2754 55.1872 34.4686 55.4927 34.8484V34.3687H56.117V37.8269C56.117 38.4466 56.0573 38.8931 55.9244 39.153C55.7982 39.4128 55.599 39.6194 55.3267 39.7726C55.0543 39.9259 54.7156 39.9992 54.3105 39.9992C53.8323 39.9992 53.4537 39.8926 53.1548 39.6794C52.8625 39.4661 52.7231 39.1396 52.7297 38.7065L52.743 38.6865ZM53.3009 36.2811C53.3009 36.8075 53.4072 37.1873 53.6131 37.4338C53.819 37.6737 54.0846 37.7936 54.3968 37.7936C54.709 37.7936 54.968 37.6737 55.1805 37.4338C55.3931 37.1939 55.4927 36.8208 55.4927 36.3077C55.4927 35.7946 55.3864 35.4481 55.1673 35.1949C54.9481 34.9484 54.689 34.8218 54.3835 34.8218C54.078 34.8218 53.8256 34.9417 53.6197 35.1883C53.4072 35.4348 53.3009 35.7946 53.3009 36.2811Z" fill="black"/>
<path d="M57.1543 33.6097V32.8301H57.8318V33.6097H57.1543ZM57.1543 38.354V34.3493H57.8318V38.354H57.1543Z" fill="black"/>
<path d="M61.4642 37.8616C61.2118 38.0748 60.9727 38.2281 60.7402 38.3147C60.5078 38.4013 60.262 38.4479 59.9963 38.4479C59.558 38.4479 59.2192 38.3413 58.9868 38.1281C58.7477 37.9149 58.6348 37.635 58.6348 37.3018C58.6348 37.1086 58.6813 36.9287 58.7676 36.7621C58.8539 36.6022 58.9735 36.4689 59.1196 36.3756C59.2657 36.2757 59.4251 36.2024 59.6045 36.1558C59.7373 36.1224 59.9366 36.0825 60.2022 36.0558C60.7469 35.9892 61.152 35.9092 61.411 35.8226C61.411 35.7293 61.411 35.6693 61.411 35.6427C61.411 35.3628 61.3446 35.1696 61.2184 35.0563C61.0457 34.9031 60.7867 34.8298 60.448 34.8298C60.1292 34.8298 59.8967 34.8831 59.7439 34.9963C59.5912 35.1096 59.4783 35.3029 59.4052 35.5894L58.741 35.5027C58.8008 35.2162 58.9004 34.9897 59.0399 34.8164C59.1794 34.6432 59.3786 34.5099 59.6377 34.41C59.8967 34.3167 60.2022 34.27 60.541 34.27C60.8797 34.27 61.1587 34.31 61.3712 34.39C61.5837 34.4699 61.7431 34.5699 61.8428 34.6965C61.9424 34.8164 62.0154 34.9763 62.0553 35.1563C62.0752 35.2695 62.0885 35.4828 62.0885 35.7826V36.6888C62.0885 37.3218 62.1018 37.715 62.1284 37.8882C62.1549 38.0548 62.2147 38.2147 62.301 38.368H61.597C61.5306 38.2281 61.4841 38.0615 61.4642 37.8749V37.8616ZM61.411 36.349C61.1653 36.4489 60.8 36.5356 60.3085 36.6022C60.0295 36.6422 59.8369 36.6888 59.7174 36.7421C59.6045 36.7954 59.5115 36.8621 59.4517 36.962C59.3919 37.062 59.3587 37.1686 59.3587 37.2819C59.3587 37.4618 59.4251 37.615 59.5646 37.735C59.7041 37.8549 59.9034 37.9149 60.1624 37.9149C60.4214 37.9149 60.6539 37.8549 60.8598 37.7416C61.0657 37.6284 61.2118 37.4684 61.3048 37.2752C61.3778 37.1219 61.411 36.8954 61.411 36.5955V36.349ZM60.6207 33.3638C60.7535 33.3172 60.8199 33.2505 60.8199 33.1506C60.8199 33.0906 60.7867 33.044 60.7137 33.004C60.6074 32.944 60.4413 32.9174 60.2155 32.9174C60.1358 32.9174 60.0229 32.9174 59.8635 32.9307L59.8237 32.5442C59.9233 32.5242 60.1026 32.5176 60.3683 32.5176C60.6738 32.5176 60.9262 32.5709 61.1254 32.6708C61.338 32.7774 61.4509 32.924 61.4575 33.1106C61.4642 33.4238 61.2384 33.6104 60.7734 33.6637V33.8502H60.355V33.3971C60.5011 33.3838 60.5875 33.3705 60.6273 33.3572L60.6207 33.3638Z" fill="black"/>
<path d="M63.1387 33.6097V32.8301H63.8161V33.6097H63.1387ZM63.1387 38.354V34.3493H63.8161V38.354H63.1387Z" fill="black"/>
<path d="M66.9824 39.8864V34.3491H67.6001V34.8689C67.7462 34.6623 67.9123 34.5091 68.0916 34.4091C68.2709 34.3092 68.4968 34.2559 68.7558 34.2559C69.0945 34.2559 69.3934 34.3425 69.6591 34.5224C69.9181 34.6956 70.1174 34.9422 70.2502 35.2687C70.383 35.5885 70.4494 35.9417 70.4494 36.3215C70.4494 36.728 70.3764 37.1011 70.2303 37.4276C70.0841 37.7541 69.8716 38.0073 69.5927 38.1806C69.3137 38.3538 69.0215 38.4404 68.7093 38.4404C68.4835 38.4404 68.2842 38.3938 68.1049 38.3005C67.9256 38.2072 67.7794 38.0806 67.6665 37.9407V39.8864H66.9891H66.9824ZM67.5935 36.3748C67.5935 36.8879 67.6997 37.2677 67.9056 37.5142C68.1115 37.7608 68.3639 37.8874 68.6628 37.8874C68.9617 37.8874 69.2207 37.7608 69.4333 37.5009C69.6458 37.2477 69.7521 36.8479 69.7521 36.3148C69.7521 35.7818 69.6458 35.4219 69.4399 35.1687C69.2274 34.9155 68.9816 34.7889 68.6894 34.7889C68.3971 34.7889 68.1447 34.9222 67.9256 35.1954C67.7064 35.4686 67.5935 35.8617 67.5935 36.3748Z" fill="black"/>
<path d="M71.2605 38.354V32.8301H71.938V34.8158C72.2568 34.4493 72.6487 34.2627 73.1335 34.2627C73.4258 34.2627 73.6848 34.3227 73.904 34.4359C74.1232 34.5492 74.2759 34.7158 74.3689 34.9224C74.4619 35.1289 74.5084 35.4288 74.5084 35.8219V38.3606H73.8309V35.8219C73.8309 35.4821 73.7579 35.2355 73.6118 35.0823C73.4656 34.929 73.2597 34.8491 72.9874 34.8491C72.7882 34.8491 72.5956 34.9024 72.4229 35.0023C72.2435 35.1089 72.1173 35.2489 72.0443 35.4288C71.9712 35.6087 71.9314 35.8552 71.9314 36.1684V38.3606H71.2539L71.2605 38.354Z" fill="black"/>
<path d="M78.1478 37.8602C77.8954 38.0734 77.6563 38.2267 77.4238 38.3133C77.1913 38.3999 76.9456 38.4466 76.6799 38.4466C76.2416 38.4466 75.9028 38.34 75.6704 38.1267C75.4379 37.9135 75.3184 37.6336 75.3184 37.3005C75.3184 37.1072 75.3649 36.9273 75.4512 36.7608C75.5375 36.6008 75.6571 36.4676 75.7966 36.3743C75.9427 36.2743 76.1021 36.201 76.2814 36.1544C76.4143 36.1211 76.6135 36.0811 76.8858 36.0544C77.4305 35.9878 77.8356 35.9078 78.0946 35.8212C78.0946 35.7279 78.0946 35.668 78.0946 35.6413C78.0946 35.3615 78.0282 35.1682 77.902 35.0549C77.7293 34.9017 77.4769 34.8284 77.1316 34.8284C76.8128 34.8284 76.5803 34.8817 76.4275 34.995C76.2748 35.1082 76.1619 35.3015 76.0888 35.588L75.4246 35.5014C75.4844 35.2149 75.584 34.9883 75.7235 34.8151C75.863 34.6418 76.0622 34.5085 76.3213 34.4086C76.5803 34.3153 76.8858 34.2687 77.2246 34.2687C77.5633 34.2687 77.8422 34.3086 78.0548 34.3886C78.2673 34.4686 78.4267 34.5685 78.5264 34.6951C78.626 34.8151 78.699 34.975 78.7389 35.1549C78.7588 35.2682 78.7721 35.4814 78.7721 35.7812V36.6875C78.7721 37.3205 78.7854 37.7136 78.812 37.8869C78.8385 38.0534 78.8983 38.2134 78.9846 38.3666H78.2806C78.2142 38.2267 78.1677 38.0601 78.1478 37.8735V37.8602ZM78.0946 36.3476C77.8489 36.4476 77.4836 36.5342 76.9921 36.6008C76.7131 36.6408 76.5205 36.6875 76.401 36.7408C76.2881 36.7941 76.1951 36.8607 76.1353 36.9607C76.0689 37.0606 76.0423 37.1672 76.0423 37.2805C76.0423 37.4604 76.1087 37.6137 76.2482 37.7336C76.3877 37.8535 76.5869 37.9135 76.846 37.9135C77.105 37.9135 77.3375 37.8535 77.5434 37.7403C77.7493 37.627 77.8954 37.4671 77.9884 37.2738C78.0614 37.1206 78.0946 36.894 78.0946 36.5942V36.3476ZM76.7796 33.8555L77.2777 32.8027H78.1677L77.3441 33.8555H76.7862H76.7796Z" fill="black"/>
<path d="M79.8223 39.8864V34.3491H80.44V34.8689C80.5861 34.6623 80.7455 34.5091 80.9314 34.4091C81.1174 34.3092 81.3366 34.2559 81.5956 34.2559C81.9344 34.2559 82.2399 34.3425 82.4989 34.5224C82.7579 34.6956 82.9572 34.9422 83.09 35.2687C83.2229 35.5885 83.2893 35.9417 83.2893 36.3215C83.2893 36.728 83.2162 37.1011 83.0701 37.4276C82.924 37.7541 82.7115 38.0073 82.4325 38.1806C82.1535 38.3538 81.8613 38.4404 81.5491 38.4404C81.3233 38.4404 81.1241 38.3938 80.9447 38.3005C80.7654 38.2072 80.6193 38.0806 80.5064 37.9407V39.8864H79.8289H79.8223ZM80.4333 36.3748C80.4333 36.8879 80.5396 37.2677 80.7455 37.5142C80.9514 37.7608 81.2038 37.8874 81.5026 37.8874C81.8015 37.8874 82.0606 37.7608 82.2731 37.5009C82.4856 37.2477 82.5919 36.8479 82.5919 36.3148C82.5919 35.7818 82.4856 35.4219 82.2797 35.1687C82.0672 34.9155 81.8214 34.7889 81.5292 34.7889C81.237 34.7889 80.9846 34.9222 80.7654 35.1954C80.5462 35.4686 80.4333 35.8617 80.4333 36.3748Z" fill="black"/>
<path d="M86.2383 39.8864V34.3491H86.856V34.8689C87.0021 34.6623 87.1615 34.5091 87.3475 34.4091C87.5268 34.3092 87.7526 34.2559 88.0116 34.2559C88.3504 34.2559 88.6559 34.3425 88.9149 34.5224C89.174 34.6956 89.3732 34.9422 89.506 35.2687C89.6389 35.5885 89.7053 35.9417 89.7053 36.3215C89.7053 36.728 89.6322 37.1011 89.4861 37.4276C89.34 37.7541 89.1275 38.0073 88.8485 38.1806C88.5696 38.3538 88.2773 38.4404 87.9652 38.4404C87.7393 38.4404 87.5401 38.3938 87.3607 38.3005C87.1814 38.2072 87.0353 38.0806 86.9224 37.9407V39.8864H86.2449H86.2383ZM86.8493 36.3748C86.8493 36.8879 86.9556 37.2677 87.1615 37.5142C87.3674 37.7608 87.6198 37.8874 87.9187 37.8874C88.2175 37.8874 88.4766 37.7608 88.6891 37.5009C88.9016 37.2477 89.0079 36.8479 89.0079 36.3148C89.0079 35.7818 88.9016 35.4219 88.6957 35.1687C88.4832 34.9155 88.2375 34.7889 87.9452 34.7889C87.653 34.7889 87.4006 34.9222 87.1814 35.1954C86.9622 35.4686 86.8493 35.8617 86.8493 36.3748Z" fill="black"/>
<path d="M90.5145 38.354V32.8301H91.1919V34.8158C91.5107 34.4493 91.9026 34.2627 92.3874 34.2627C92.6797 34.2627 92.9387 34.3227 93.1579 34.4359C93.3771 34.5492 93.5298 34.7158 93.6228 34.9224C93.7158 35.1289 93.7623 35.4288 93.7623 35.8219V38.3606H93.0848V35.8219C93.0848 35.4821 93.0118 35.2355 92.8657 35.0823C92.7195 34.929 92.5136 34.8491 92.2413 34.8491C92.0421 34.8491 91.8495 34.9024 91.6768 35.0023C91.5041 35.1089 91.3712 35.2489 91.2982 35.4288C91.2251 35.6087 91.1853 35.8552 91.1853 36.1684V38.3606H90.5078L90.5145 38.354Z" fill="black"/>
<path d="M97.4095 38.3533V37.7669C97.0973 38.22 96.6789 38.4466 96.1409 38.4466C95.9084 38.4466 95.6892 38.3999 95.4833 38.3133C95.2774 38.22 95.1247 38.1067 95.0251 37.9735C94.9254 37.8402 94.859 37.667 94.8191 37.4737C94.7926 37.3405 94.7793 37.1272 94.7793 36.8407V34.362H95.4568V36.5808C95.4568 36.934 95.47 37.1739 95.4966 37.3005C95.5365 37.4804 95.6295 37.6203 95.7689 37.7203C95.9084 37.8202 96.0745 37.8735 96.2804 37.8735C96.4862 37.8735 96.6722 37.8202 96.8515 37.7136C97.0309 37.607 97.1571 37.4671 97.2301 37.2872C97.3032 37.1072 97.343 36.8474 97.343 36.5075V34.362H98.0205V38.3666H97.4161L97.4095 38.3533ZM97.0242 33.8555H96.4796L95.6095 32.8027H96.5128L97.0176 33.8555H97.0242Z" fill="black"/>
<path d="M101.216 38.354V32.8301H101.893V34.8158C102.212 34.4493 102.61 34.2627 103.089 34.2627C103.381 34.2627 103.64 34.3227 103.859 34.4359C104.078 34.5492 104.231 34.7158 104.324 34.9224C104.417 35.1289 104.463 35.4288 104.463 35.8219V38.3606H103.786V35.8219C103.786 35.4821 103.713 35.2355 103.567 35.0823C103.421 34.929 103.215 34.8491 102.942 34.8491C102.743 34.8491 102.551 34.9024 102.378 35.0023C102.199 35.1089 102.079 35.2489 101.999 35.4288C101.926 35.6087 101.886 35.8552 101.886 36.1684V38.3606H101.209L101.216 38.354Z" fill="black"/>
<path d="M109.067 35.0421V34.2559H109.791V34.8755C109.791 35.1887 109.744 35.4286 109.645 35.5885C109.525 35.8084 109.299 36.0017 108.974 36.1816V36.2882C108.974 37.221 108.675 37.8607 108.07 38.1939C107.772 38.3605 107.453 38.4404 107.107 38.4404C106.536 38.4404 106.085 38.2605 105.752 37.9007C105.407 37.5276 105.234 37.0078 105.234 36.3481C105.234 35.6085 105.44 35.0555 105.852 34.7023C106.197 34.4091 106.616 34.2559 107.107 34.2559C107.659 34.2559 108.104 34.4358 108.456 34.7956C108.715 35.0688 108.881 35.4219 108.947 35.8551C109.12 35.7484 109.239 35.6418 109.312 35.5286C109.386 35.4153 109.419 35.2554 109.419 35.0355H109.067V35.0421ZM105.932 36.3548C105.932 36.8479 106.045 37.2344 106.264 37.5076C106.476 37.7608 106.755 37.894 107.107 37.894C107.459 37.894 107.738 37.7674 107.944 37.5076C108.17 37.2344 108.276 36.8412 108.276 36.3348C108.276 35.8551 108.163 35.4819 107.938 35.2154C107.725 34.9622 107.446 34.8289 107.101 34.8289C106.755 34.8289 106.47 34.9555 106.257 35.2087C106.038 35.4819 105.925 35.8617 105.925 36.3548H105.932ZM106.696 39.5799V38.8069H107.466V39.5799H106.696Z" fill="black"/>
<path d="M110.533 39.8864V34.3491H111.151V34.8689C111.297 34.6623 111.456 34.5091 111.642 34.4091C111.822 34.3092 112.048 34.2559 112.307 34.2559C112.645 34.2559 112.951 34.3425 113.21 34.5224C113.469 34.6956 113.668 34.9422 113.801 35.2687C113.934 35.5885 114 35.9417 114 36.3215C114 36.728 113.927 37.1011 113.781 37.4276C113.635 37.7541 113.422 38.0073 113.143 38.1806C112.864 38.3538 112.572 38.4404 112.26 38.4404C112.034 38.4404 111.835 38.3938 111.656 38.3005C111.476 38.2072 111.33 38.0806 111.211 37.9407V39.8864H110.533ZM111.144 36.3748C111.144 36.8879 111.251 37.2677 111.456 37.5142C111.662 37.7608 111.915 37.8874 112.214 37.8874C112.512 37.8874 112.771 37.7608 112.984 37.5009C113.197 37.2477 113.303 36.8479 113.303 36.3148C113.303 35.7818 113.197 35.4219 112.991 35.1687C112.778 34.9155 112.532 34.7889 112.24 34.7889C111.948 34.7889 111.696 34.9222 111.476 35.1954C111.257 35.4686 111.144 35.8617 111.144 36.3748Z" fill="black"/>
</g>
<defs>
<clipPath id="clip0_5548_16370">
<rect width="114" height="40" fill="white"/>
</clipPath>
</defs>
</svg>
