<svg width="24" height="24" viewBox="0 0 24 24" fill="none" xmlns="http://www.w3.org/2000/svg">
<path d="M2.05078 2.05078H4.05078L6.71078 14.4708C6.80836 14.9256 7.06145 15.3323 7.42649 15.6206C7.79153 15.909 8.24569 16.0611 8.71078 16.0508H18.4908C18.946 16.05 19.3873 15.8941 19.7418 15.6086C20.0964 15.3232 20.3429 14.9253 20.4408 14.4808L22.0908 7.05078H5.12078M9.00073 21.001C9.00073 21.5533 8.55302 22.001 8.00073 22.001C7.44845 22.001 7.00073 21.5533 7.00073 21.001C7.00073 20.4487 7.44845 20.001 8.00073 20.001C8.55302 20.001 9.00073 20.4487 9.00073 21.001ZM20.0007 21.001C20.0007 21.5533 19.553 22.001 19.0007 22.001C18.4484 22.001 18.0007 21.5533 18.0007 21.001C18.0007 20.4487 18.4484 20.001 19.0007 20.001C19.553 20.001 20.0007 20.4487 20.0007 21.001Z" stroke="#CED4DA" stroke-width="2" stroke-linecap="round" stroke-linejoin="round"/>
</svg>
