<svg width="33" height="33" viewBox="0 0 33 33" fill="none" xmlns="http://www.w3.org/2000/svg">
<path d="M32.0879 26.5508L31.2183 26.5508C28.6432 26.5508 26.5556 24.4632 26.5556 21.8881L26.5556 -0.00397921L32.0879 -0.00397873L32.0879 26.5508Z" fill="#A50032"/>
<path d="M10.1939 5.5293C7.61879 5.5293 5.53125 3.44176 5.53125 0.866645L5.53125 -0.00294781L32.086 -0.00294433L32.086 5.5293L10.1939 5.5293Z" fill="#FF004D"/>
<path d="M27.2891 5.53097C27.3533 5.52877 27.4201 5.52871 27.4891 5.53097H32.089V12.2562C32.089 6.966 29.1407 5.58495 27.4891 5.53097H27.2891Z" fill="#FF004D"/>
<path d="M-0.00585938 5.5332L0.863732 5.5332C3.43884 5.5332 5.52638 7.62074 5.52638 10.1959L5.52638 32.088L-0.00586402 32.088L-0.00585938 5.5332Z" fill="#A50032"/>
<path d="M21.8881 26.5547C24.4632 26.5547 26.5508 28.6422 26.5508 31.2173L26.5508 32.0869L-0.00397994 32.0869L-0.00397873 26.5547L21.8881 26.5547Z" fill="#FF004D"/>
<path d="M4.79297 26.553C4.72875 26.5552 4.66195 26.5553 4.59289 26.553L-0.00692034 26.553L-0.00691975 19.8278C-0.00692021 25.118 2.94129 26.499 4.59289 26.553L4.79297 26.553Z" fill="#FF004D"/>
<rect x="13.2773" y="9.40234" width="8.85159" height="8.85159" rx="4.42579" fill="url(#paint0_radial_5855_5052)"/>
<defs>
<radialGradient id="paint0_radial_5855_5052" cx="0" cy="0" r="1" gradientUnits="userSpaceOnUse" gradientTransform="translate(20.3225 11.7628) rotate(143.842) scale(8.61069 17.6273)">
<stop stop-color="#FF004D"/>
<stop offset="1" stop-color="#99002E"/>
</radialGradient>
</defs>
</svg>
