<svg width="28" height="28" viewBox="0 0 28 28" fill="none" xmlns="http://www.w3.org/2000/svg">
<path d="M23.334 10.5003V7.00033C23.334 6.38149 23.0882 5.78799 22.6506 5.35041C22.213 4.91282 21.6195 4.66699 21.0007 4.66699H7.00065C6.38181 4.66699 5.78832 4.91282 5.35074 5.35041C4.91315 5.78799 4.66732 6.38149 4.66732 7.00033V10.5003M23.334 10.5003C23.9528 10.5003 24.5463 10.7462 24.9839 11.1837C25.4215 11.6213 25.6673 12.2148 25.6673 12.8337V18.667C25.6673 19.2858 25.4215 19.8793 24.9839 20.3169C24.5463 20.7545 23.9528 21.0003 23.334 21.0003M23.334 10.5003C22.7151 10.5003 22.1217 10.7462 21.6841 11.1837C21.2465 11.6213 21.0007 12.2148 21.0007 12.8337V14.5837C21.0007 14.7384 20.9392 14.8867 20.8298 14.9961C20.7204 15.1055 20.572 15.167 20.4173 15.167H7.58398C7.42927 15.167 7.2809 15.1055 7.17151 14.9961C7.06211 14.8867 7.00065 14.7384 7.00065 14.5837V12.8337C7.00065 12.2148 6.75482 11.6213 6.31723 11.1837C5.87965 10.7462 5.28616 10.5003 4.66732 10.5003M4.66732 10.5003C4.04848 10.5003 3.45499 10.7462 3.0174 11.1837C2.57982 11.6213 2.33398 12.2148 2.33398 12.8337V18.667C2.33398 19.2858 2.57982 19.8793 3.0174 20.3169C3.45499 20.7545 4.04848 21.0003 4.66732 21.0003M4.66732 21.0003H23.334M4.66732 21.0003V23.3337M23.334 21.0003V23.3337M14.0007 4.66699V15.167" stroke="#FF004D" stroke-width="2" stroke-linecap="round" stroke-linejoin="round"/>
</svg>
