<svg width="28" height="28" viewBox="0 0 28 28" fill="none" xmlns="http://www.w3.org/2000/svg">
<path d="M2.33398 8.16634L7.47898 3.02134C7.69605 2.80298 7.95419 2.62974 8.23852 2.5116C8.52285 2.39346 8.82775 2.33276 9.13565 2.33301H18.8657C19.1735 2.33276 19.4784 2.39346 19.7628 2.5116C20.0471 2.62974 20.3052 2.80298 20.5223 3.02134L25.6673 8.16634M2.33398 8.16634H25.6673M2.33398 8.16634V11.6663C2.33398 12.2852 2.57982 12.8787 3.0174 13.3163C3.45499 13.7538 4.04848 13.9997 4.66732 13.9997M25.6673 8.16634V11.6663C25.6673 12.2852 25.4215 12.8787 24.9839 13.3163C24.5463 13.7538 23.9528 13.9997 23.334 13.9997M4.66732 13.9997V23.333C4.66732 23.9518 4.91315 24.5453 5.35074 24.9829C5.78832 25.4205 6.38181 25.6663 7.00065 25.6663H21.0007C21.6195 25.6663 22.213 25.4205 22.6506 24.9829C23.0882 24.5453 23.334 23.9518 23.334 23.333V13.9997M4.66732 13.9997C5.34896 13.9622 5.99997 13.7042 6.52232 13.2647C6.66152 13.1641 6.8289 13.1099 7.00065 13.1099C7.1724 13.1099 7.33978 13.1641 7.47898 13.2647C8.00134 13.7042 8.65234 13.9622 9.33398 13.9997C10.0156 13.9622 10.6666 13.7042 11.189 13.2647C11.3282 13.1641 11.4956 13.1099 11.6673 13.1099C11.8391 13.1099 12.0064 13.1641 12.1457 13.2647C12.668 13.7042 13.319 13.9622 14.0007 13.9997C14.6823 13.9622 15.3333 13.7042 15.8557 13.2647C15.9949 13.1641 16.1622 13.1099 16.334 13.1099C16.5057 13.1099 16.6731 13.1641 16.8123 13.2647C17.3347 13.7042 17.9857 13.9622 18.6673 13.9997C19.349 13.9622 20 13.7042 20.5223 13.2647C20.6615 13.1641 20.8289 13.1099 21.0007 13.1099C21.1724 13.1099 21.3398 13.1641 21.479 13.2647C22.0013 13.7042 22.6523 13.9622 23.334 13.9997M17.5007 25.6663V20.9997C17.5007 20.3808 17.2548 19.7873 16.8172 19.3498C16.3796 18.9122 15.7862 18.6663 15.1673 18.6663H12.834C12.2151 18.6663 11.6217 18.9122 11.1841 19.3498C10.7465 19.7873 10.5007 20.3808 10.5007 20.9997V25.6663" stroke="#FF004D" stroke-width="2" stroke-linecap="round" stroke-linejoin="round"/>
</svg>
