<svg width="28" height="28" viewBox="0 0 28 28" fill="none" xmlns="http://www.w3.org/2000/svg">
<path d="M16.3326 8.16634L19.8326 11.6663M5.83256 6.99967V11.6663M22.1659 16.333V20.9997M11.6659 2.33301V4.66634M8.16589 9.33301H3.49923M24.4992 18.6663H19.8326M12.8326 3.49967H10.4992M25.2459 4.24611L23.7526 2.75278C23.6213 2.62015 23.4651 2.51486 23.2929 2.443C23.1206 2.37115 22.9359 2.33415 22.7493 2.33415C22.5627 2.33415 22.3779 2.37115 22.2057 2.443C22.0335 2.51486 21.8772 2.62015 21.7459 2.75278L2.75261 21.7461C2.61998 21.8774 2.51469 22.0336 2.44284 22.2059C2.37098 22.3781 2.33398 22.5628 2.33398 22.7494C2.33398 22.9361 2.37098 23.1208 2.44284 23.293C2.51469 23.4652 2.61998 23.6215 2.75261 23.7528L4.24595 25.2461C4.3764 25.3802 4.5324 25.4867 4.70473 25.5595C4.87706 25.6322 5.06222 25.6697 5.24928 25.6697C5.43634 25.6697 5.6215 25.6322 5.79383 25.5595C5.96616 25.4867 6.12216 25.3802 6.25261 25.2461L25.2459 6.25278C25.38 6.12232 25.4866 5.96632 25.5593 5.79399C25.6321 5.62166 25.6696 5.4365 25.6696 5.24944C25.6696 5.06238 25.6321 4.87722 25.5593 4.70489C25.4866 4.53257 25.38 4.37657 25.2459 4.24611Z" stroke="#FF004D" stroke-width="2" stroke-linecap="round" stroke-linejoin="round"/>
</svg>
