<svg width="21" height="20" viewBox="0 0 21 20" fill="none" xmlns="http://www.w3.org/2000/svg">
<path d="M3.66821 11.6662C3.51051 11.6668 3.3559 11.6226 3.22233 11.5387C3.08877 11.4549 2.98173 11.3349 2.91366 11.1926C2.84559 11.0504 2.81928 10.8917 2.83779 10.7351C2.85629 10.5785 2.91886 10.4304 3.01821 10.3079L11.2682 1.8079C11.3301 1.73647 11.4144 1.6882 11.5074 1.67101C11.6003 1.65382 11.6963 1.66874 11.7796 1.71332C11.863 1.7579 11.9287 1.82948 11.966 1.91632C12.0033 2.00317 12.0099 2.10011 11.9849 2.19123L10.3849 7.2079C10.3377 7.33417 10.3218 7.47 10.3387 7.60374C10.3555 7.73748 10.4046 7.86513 10.4816 7.97576C10.5586 8.08638 10.6614 8.17666 10.7809 8.23887C10.9005 8.30107 11.0334 8.33334 11.1682 8.3329H17.0015C17.1592 8.33236 17.3138 8.37658 17.4474 8.46042C17.581 8.54426 17.688 8.66427 17.7561 8.80652C17.8242 8.94877 17.8505 9.10741 17.832 9.26402C17.8135 9.42063 17.7509 9.56877 17.6515 9.69123L9.40154 18.1912C9.33965 18.2627 9.25532 18.3109 9.16239 18.3281C9.06945 18.3453 8.97344 18.3304 8.8901 18.2858C8.80676 18.2412 8.74105 18.1697 8.70376 18.0828C8.66647 17.996 8.65981 17.899 8.68487 17.8079L10.2849 12.7912C10.3321 12.665 10.3479 12.5291 10.331 12.3954C10.3142 12.2617 10.2652 12.134 10.1881 12.0234C10.1111 11.9128 10.0084 11.8225 9.88881 11.7603C9.76923 11.6981 9.63634 11.6658 9.50154 11.6662H3.66821Z" stroke="white" stroke-width="2" stroke-linecap="round" stroke-linejoin="round"/>
</svg>
